<?xml version="1.0" encoding="utf-8"?>
<!-- Generator: Adobe Illustrator 28.0.0, SVG Export Plug-In . SVG Version: 6.00 Build 0)  -->
<svg version="1.1" id="Capa_1" xmlns="http://www.w3.org/2000/svg" xmlns:xlink="http://www.w3.org/1999/xlink" x="0px" y="0px"
	 viewBox="0 0 600 450" style="enable-background:new 0 0 600 450;" xml:space="preserve">
<style type="text/css">
	.st0{fill:#FFFFFF;}
</style>
<g>
	<g>
		<g>
			<path class="st0" d="M196.2,372.8c0.8-4.7,1.1-6.2,1.1-6.8c0-0.6-0.2-0.6-2.8-1c-0.7-0.1-0.9-0.2-0.9-0.4c0-0.5,0.1-1.9,0.5-1.9
				c0.4,0,1.3,0.2,2.3,0.3c1.1,0.2,2.2,0.4,3.1,0.4c1.8,0,3.4-0.2,4.9-0.2c1.5-0.1,2.9-0.2,4.3-0.2c9-0.1,14.9,5.5,15,16.3
				c0.1,9.3-5.3,24.4-20.8,24.6c-3.7,0.1-6.5-0.7-9.5-0.6c-2.6,0-5.1,0.8-5.9,0.8c-0.2,0-0.4-0.2-0.4-0.4c0-0.2,0.1-1.9,0.6-1.9
				c2.6-0.3,2.8-0.5,3-0.7c0.3-0.4,1.3-5.3,1.7-7.8L196.2,372.8z M196.6,395.1c-0.4,2-0.8,4.1-0.8,5.1c0,1.4,2.2,1.3,6,1.3
				c10.5-0.1,17.2-11.2,17.1-21.6c-0.1-9.7-3.8-14.7-12.9-14.6c-3.6,0-3.9,0.1-4.1,1.3L196.6,395.1z"/>
			<path class="st0" d="M242.8,395.5c-2.7,3.6-7,7.9-11.3,7.9c-3.7,0-6.1-3.3-6.2-7.2c-0.1-9.1,6.2-19.4,13.3-19.5
				c1.8,0,3.5,0.9,3.6,3.1c0.1,6.3-8.2,11-12.7,12.3c-0.1,0.7-0.2,1.4-0.2,2.2c0,3,1.6,5.4,4.3,5.3c3.3,0,6.1-2.4,8.4-5L242.8,395.5
				z M236.6,379.1c-3.6,0-6.2,8.2-6.9,11.6c3.2-0.7,8.7-5.6,8.7-9.6C238.4,380,237.6,379.1,236.6,379.1z"/>
			<path class="st0" d="M249,403.2c-2.5,0-5.2-0.7-5.2-1.4c0-0.5,0-1.6,0.2-4.4c0-0.7,0.2-1.1,0.5-1.1c1.1,0,1.2,4.5,5.8,4.5
				c2.1,0,4.6-1.9,4.6-4.8c-0.1-4.9-9-3.6-9.1-10c-0.1-4.4,3.1-9.4,11.2-9.6c1.2,0,3.3,0.5,3.3,1c0,0.3-0.7,3.4-0.8,3.7
				c-0.1,0.3-0.1,0.5-0.4,0.5c-0.7,0-1.4-2.8-4.9-2.7c-2.9,0-4.8,2.7-4.8,4.8c0.1,4.2,9.3,4,9.3,9.7
				C258.9,396.5,255.5,403.1,249,403.2z"/>
			<path class="st0" d="M283.5,397.5c-1.6,1.5-5.8,5.3-7.6,5.3c-0.6,0-1.3-0.5-1.3-1.6c0-1.5,1.4-8.5,2.3-11.5l-0.1,0
				c-2.5,4.4-8.5,13.2-13.4,13.2c-1.9,0-2.7-1.4-2.7-3.5c-0.1-6.5,7.7-23.2,15.7-23.3c1.2,0,1.9,0.4,2.7,1.3l2.2-11
				c0.1-0.7,0.2-1.3,0.2-1.6c0-0.3-0.1-0.4-0.2-0.4c-0.2,0-0.4,0.2-2.8,2.2l-0.6-1.1c7.1-6.3,7.4-6.6,8.1-6.6c0.4,0,0.7,0.4,0.7,1.1
				c0,1.1-2,9.6-3.1,14.6l-3.9,18.7c-0.4,1.9-0.5,3.3-0.5,4.2c0,0.6,0.3,1,0.9,1c0.4,0,2.4-1.8,3-2.3L283.5,397.5z M266.7,398.9
				c2.8,0,11.4-10.5,11.3-16.8c0-2.1-0.6-3.6-2.4-3.5c-5.4,0.1-10.5,13.3-10.4,18C265.2,398,265.7,398.9,266.7,398.9z"/>
			<path class="st0" d="M302.7,394.7c-2.6,3.6-7,7.9-11.3,7.9c-3.7,0-6.1-3.3-6.2-7.2c-0.1-9.1,6.2-19.4,13.3-19.5
				c1.8,0,3.5,0.9,3.6,3.1c0.1,6.3-8.2,11-12.7,12.3c-0.1,0.7-0.2,1.4-0.2,2.2c0,3,1.6,5.4,4.3,5.3c3.3,0,6.1-2.4,8.4-5L302.7,394.7
				z M296.5,378.3c-3.6,0-6.2,8.2-6.9,11.6c3.2-0.7,8.7-5.6,8.7-9.6C298.3,379.2,297.5,378.3,296.5,378.3z"/>
			<g>
				<path class="st0" d="M321,371.2l-0.1,0l-10.3,14.3c-0.2,0.3-0.4,0.3-0.5,0.3c-0.1,0-0.2-0.1-0.3-0.2l-1.2-1.3
					c-0.1-0.1-0.2-0.3-0.2-0.5c0-0.2,0.1-0.4,0.7-1.1l17.6-23c0.5-0.7,0.9-1.1,1.7-1.1c1.9,0,2.6,0.2,2.6,0.7c0,0.7-0.2,1.6-0.5,3
					l-8,40.5l-8,0L321,371.2z"/>
				<path class="st0" d="M337.2,402.6c5.1-5.5,9.7-14.7,11.6-19.8l2.1-5.7l-0.1,0c-3,4.6-7.8,10-13.2,10c-3.6,0-5.8-2.7-5.8-7
					c0-8.6,9.8-21.5,19.8-21.5c5.7,0,8.6,3.7,8.6,10.3c0,9.2-7.1,22.4-16.7,32.4l-7.4,7.7c-0.5,0.5-0.8,0.7-1,0.7
					c-0.1,0-0.3-0.2-0.6-0.5l-0.9-1.1c-0.2-0.2-0.3-0.4-0.3-0.7c0-0.5,0.3-0.9,1.1-1.8L337.2,402.6z M342.1,382
					c3.5,0,10.7-8.7,10.7-14.9c0-2.8-0.8-4.8-3.2-4.8c-5,0-10.4,12.3-10.4,16.7C339.2,380.5,340.3,382.1,342.1,382z"/>
				<path class="st0" d="M372.3,380.6c2.2-2.6,4.5-6.3,4.5-9.5c0-4.6-3.1-6.2-6.1-6.2c-2.4,0-3.6,0.9-4.8,2.5l-1.7,2.4
					c-0.1,0.1-0.2,0.1-0.3,0.1c-0.2,0-0.3-0.1-0.5-0.2l-1.5-0.9c-0.3-0.1-0.4-0.3-0.4-0.5c0-0.3,0.2-0.6,0.5-1.1l4.6-6.4
					c1.8-2.5,3.1-3,6.9-3c5.4,0,10.9,2.6,10.9,10.3c0,5.3-3.2,10-9.4,15.8L363,395.2l0,0.1c3.3-1.3,8.1-2.2,10.6-2.2
					c2.9,0,5.7,0.7,8.3,2.2l1.6-4c0.1-0.4,0.3-0.6,0.4-0.6c0.1,0,0.4,0,0.7,0.2l1.4,0.7c0.4,0.1,0.6,0.3,0.6,0.5
					c0,0.3-0.2,0.6-0.6,1.3l-4.5,9.2c-0.3,0.6-0.5,0.9-0.9,0.9c-1.7,0-6.3-5-15.5-5c-3.4,0-5.3,0.5-6.7,2.3l-2.2,2.8l-1.6-1.2
					c-0.2-0.1-0.3-0.4-0.3-0.6c0-0.2,0.1-0.3,0.3-0.5L372.3,380.6z"/>
				<path class="st0" d="M391,375.1c10.7,1.3,16.5,3.3,16.5,10.7c0,15-25.1,24.4-26.4,24.4c-0.6,0-1.5-2.3-1.5-2.8
					c0-0.3,0-0.4,0.3-0.5c11.2-3.3,19.2-10.3,19.2-17.2c0-8-14.7-6.8-14.7-7.9c0-0.5,0.2-0.9,0.9-2.2l10.9-20.6
					c2.4,0.1,4.9,0.2,7.3,0.2c4.4,0,6.4-0.2,7.5-0.2c0.8,0,1.1,0.2,1.1,0.6c0,0.2-0.1,0.5-0.2,0.8l-3,5.7c-0.2,0.4-0.5,0.7-1,0.7
					l-12.4,0L391,375.1z"/>
			</g>
		</g>
	</g>
	<g>
		<g>
			<g>
				<g>
					<path class="st0" d="M520.8,190.9c6.7,0,12,5.5,12,12.3c0,6.9-5.4,12.2-12.1,12.2c-6.7,0-12.1-5.4-12-12.3
						C508.6,196.3,514,190.8,520.8,190.9L520.8,190.9z M520.7,192.8c-5.4,0-9.8,4.6-9.8,10.3c0,5.8,4.4,10.4,9.8,10.4
						c5.4,0.1,9.8-4.5,9.8-10.3C530.5,197.4,526.2,192.8,520.7,192.8L520.7,192.8z M518.4,210.2l-2.2,0l0-13.6
						c1.1-0.2,2.2-0.3,3.8-0.3c2.1,0,3.4,0.5,4.2,1.1c0.8,0.6,1.3,1.5,1.3,2.8c0,1.8-1.2,2.9-2.7,3.3l0,0.1c1.2,0.2,2,1.3,2.2,3.3
						c0.4,2.1,0.7,3,0.9,3.4l-2.3,0c-0.3-0.4-0.6-1.7-0.9-3.5c-0.3-1.7-1.2-2.4-2.9-2.4l-1.5,0L518.4,210.2z M518.4,202.7l1.6,0
						c1.8,0,3.3-0.7,3.3-2.3c0-1.2-0.8-2.4-3.3-2.4c-0.7,0-1.2,0.1-1.6,0.1L518.4,202.7z"/>
				</g>
			</g>
		</g>
		<path class="st0" d="M304.1,116.9l8.2,0l0,17c0,2.7-0.7,4.9-3.4,6.6c-2.6,1.7-9,5.4-9,5.4s-6.4-3.8-8.9-5.4
			c-2.8-1.8-3.5-3.9-3.5-6.6l0-17.1l8.2,0L304.1,116.9z"/>
		<g>
			<path class="st0" d="M110.8,244.6c19-0.1,35.2-18.5,35.3-31.7c0-13.3-8.1-30.5-28-30.5c-14.3,0-19,11.4-19,16.7
				c0,6.4,4.7,17,14.6,17c10,0,13.1-4.1,14.7-6.4c4.6,6.5-4.2,21.1-23.6,23.7c3.2-3.9,4.2-16.6-6.8-16.6c-5,0-11.1,3.9-11.1,12.6
				C86.9,232.6,91.8,244.6,110.8,244.6z"/>
			<polygon class="st0" points="259.6,90.3 281.8,90.3 273.2,75.5 246,86.4 259.6,99.3 			"/>
			<path class="st0" d="M259.6,118.2l0-11.9L245,93.1C240.9,107.7,254.5,118.2,259.6,118.2z"/>
			<path class="st0" d="M259.7,138.2l0-12L245,113.2C241,127.7,254.5,138.2,259.7,138.2z"/>
			<path class="st0" d="M261.8,160.3l-0.3-11.9l-14.7-13.1C242.9,149.8,256.6,160.3,261.8,160.3z"/>
			<path class="st0" d="M166.2,243.2c2.1-1,7.9-2,7.9-10.9c0-6.8-6.7-10.5-8.8-10.2c1.7-2.4,15.4-8.3,25-2.9c0,0-4.6,3.6-4.7,8.9
				c0.1,5.3,4.5,9.6,10.5,9.6c5.9,0,10.5-5.8,10.4-11.6c0-15.9-16.7-24.8-30.7-22.8c-17.7,2.6-27.6,15.5-26.1,28.7
				C151,242.2,164,244.1,166.2,243.2z"/>
			<path class="st0" d="M106.3,302.3c0-7.4-6.5-11.4-11.3-11.4c-2.7,0-13.1,2.1-11.4,15.2c-12.8,1-27.8-27-11.7-43
				c0.1,9.8,24.1,18.4,26.9-3.6c0.9-8-9.3-17.6-21-17.6c-7,0-34.2,8.2-34.2,40.3c0,17.3,16.4,37.8,40.3,37.8
				C90.9,320,106.3,315.8,106.3,302.3z"/>
			<path class="st0" d="M198.8,133.9c-3.7,5.3-14.7,25.7,5.6,46.6C219.9,151.6,198.8,133.9,198.8,133.9z"/>
			<path class="st0" d="M199.7,201.7c2.9-35.2-30.9-36.4-30.9-36.4C167.6,173,168.9,199.5,199.7,201.7z"/>
			<path class="st0" d="M237.2,139.9c-23.9,4.1-22.5,23.6-21.1,30.5C216.1,170.4,240.9,169.1,237.2,139.9z"/>
			<path class="st0" d="M74.8,237.5c3.9,0,7.1-3.2,7.1-7.1c0-3.9-3.2-7-7.1-7.1c-3.9,0-7.1,3.2-7.1,7.1
				C67.7,234.3,70.9,237.5,74.8,237.5z"/>
			<path class="st0" d="M77.4,330.1c0-3.7-3-6.6-6.7-6.6c-3.7,0-6.6,3-6.6,6.6c0,3.6,3,6.6,6.6,6.6
				C74.3,336.7,77.4,333.7,77.4,330.1z"/>
			<path class="st0" d="M158.7,201.7c4.3,0,7.8-3.5,7.8-7.8c0-4.3-3.5-7.8-7.8-7.8c-4.3,0-7.8,3.6-7.8,7.9
				C150.9,198.2,154.4,201.8,158.7,201.7z"/>
			<path class="st0" d="M489.2,244.3c18.9,0,23.8-11.9,23.8-15.2c0-8.6-6.2-12.6-11.2-12.6c-11,0-9.9,12.8-6.7,16.6
				c-19.4-2.6-28.2-17.1-23.6-23.6c1.6,2.3,4.8,6.4,14.7,6.4c10,0,14.6-10.6,14.6-16.9c0-5.3-4.7-16.7-18.9-16.7
				c-19.9,0-28,17.2-28,30.5C453.9,225.9,470.3,244.3,489.2,244.3z"/>
			<polygon class="st0" points="318,90.4 340.2,90.3 340.2,99.3 353.8,86.3 326.6,75.5 			"/>
			<path class="st0" d="M340.2,118.1c5.2,0,18.7-10.5,14.7-25.1l-14.7,13.2L340.2,118.1z"/>
			<path class="st0" d="M354.9,113.1l-14.7,13.1l0,11.9C345.3,138.2,358.9,127.7,354.9,113.1z"/>
			<path class="st0" d="M338.1,160.3c5.2-0.1,19-10.4,15-25.1l-14.7,13.2L338.1,160.3z"/>
			<path class="st0" d="M425.9,232.2c0,8.9,5.8,9.9,7.9,10.8c2.2,0.9,15.2-1,16.3-11.3c1.5-13.1-8.5-26.1-26.1-28.6
				c-14.1-2-30.7,6.9-30.7,22.8c0,5.9,4.5,11.7,10.5,11.7c5.9,0,10.4-4.4,10.4-9.7c0-5.3-4.6-8.9-4.6-8.9c9.6-5.4,23.3,0.5,25,2.9
				C432.6,221.7,425.9,225.4,425.9,232.2z"/>
			<path class="st0" d="M522.2,241.7c-11.6,0-21.9,9.6-20.9,17.6c2.8,22,26.8,13.4,26.7,3.6c16.2,16.1,1.2,44-11.6,43.1
				c1.7-13.2-8.7-15.2-11.4-15.3c-4.8,0-11.3,4.1-11.2,11.4c0,13.4,15.3,17.6,22.4,17.6c24,0,40.3-20.5,40.3-37.8
				C556.4,249.9,529.3,241.7,522.2,241.7z"/>
			<path class="st0" d="M401,133.8c0,0-21,17.8-5.5,46.6C415.8,159.4,404.7,139.1,401,133.8z"/>
			<path class="st0" d="M400.3,201.6c30.7-2.2,32-28.8,30.8-36.5C431.1,165.1,397.3,166.4,400.3,201.6z"/>
			<path class="st0" d="M383.8,170.3c1.4-6.9,2.7-26.4-21.1-30.5C359,169,383.8,170.3,383.8,170.3z"/>
			<path class="st0" d="M525.2,237.3c3.9,0,7.1-3.2,7.1-7.1c0-3.9-3.2-7.1-7.1-7.1c-4,0-7.1,3.2-7.1,7.1
				C518.1,234.1,521.3,237.2,525.2,237.3z"/>
			<path class="st0" d="M529.4,323.2c-3.7,0-6.6,3-6.6,6.6c0,3.7,3,6.6,6.6,6.7c3.7,0,6.7-3,6.7-6.7
				C536,326.2,533,323.2,529.4,323.2z"/>
			<path class="st0" d="M441.2,201.6c4.3,0,7.8-3.5,7.8-7.8c0-4.3-3.5-7.8-7.8-7.8c-4.3,0-7.8,3.5-7.8,7.8
				C433.4,198.1,436.9,201.6,441.2,201.6z"/>
			<path class="st0" d="M513.6,333.2L513.6,333.2l-197.4,0l-32.2,0l-197.5,0.1c-8.1,0.3-14.6,7-14.7,15.2c0,8.4,6.8,15.2,15.2,15.2
				c8.5,0,15.3-6.8,15.2-15.2c0-0.8-0.1-1.6-0.2-2.3l181.9-0.2l32.2,0l181.9-0.1c-0.1,0.8-0.2,1.6-0.2,2.3c0,8.5,6.8,15.2,15.2,15.2
				c8.4,0,15.2-6.8,15.2-15.2C528.3,340.1,521.8,333.4,513.6,333.2z"/>
			<path class="st0" d="M214.8,236l63.1,0l44.2,0l63.1,0c2.2,0,3.8-1.8,3.9-3.9c0-2.1-1.7-3.8-3.9-3.8l-63.1,0l-44.2,0l-63.1,0
				c-2.2,0-3.9,1.7-3.9,3.9C210.9,234.3,212.6,236.1,214.8,236z"/>
			<path class="st0" d="M288.1,61.7c1.8,3,4.2,1.7,2.9-0.4c-1.2-1.9,1.7-4.9,5.6-6.1c0.1,0,0.1,0,0.2,0c0.8,1.1,1.3,3.4,0.9,8.9
				c-0.2,2.5-0.6,4-1.9,4.5c-7,2.8-5.7,15.8-0.9,20.3l-5.9,4.4l10.8,16.9l10.8-17l-6-4.3c4.7-4.5,6.1-17.5-0.9-20.3
				c-1.2-0.4-1.7-2-1.9-4.5c-0.4-5.6,0.1-7.9,1-8.9c0.1,0,0.1,0,0.2,0c8.5,1.3,27,4.8,33.8-5.5c-5.1,0.8-8.1-0.9-9.9-2.4
				c1.6-1.3,4.8-5.3,4.5-7.5c-17,5.3-24.5,0.1-32.6,0.8c-13.4,1.2-15.4,8.9-14.6,11.4C284.4,51.9,286.4,58.9,288.1,61.7z"/>
		</g>
		<path class="st0" d="M335.6,94.6l-20.3,0l-9.6,17.2l11.2,0l0,22.7c0,3.7-0.9,6.7-4.7,9c-3.6,2.3-12.3,7.5-12.3,7.5
			s-8.8-5.1-12.4-7.4c-3.7-2.4-4.7-5.3-4.7-9l0-22.6l11.2,0l-9.7-17.3l-20.3,0c0,0,0,37,0,47.6c0,6.5,6.6,11.4,8.9,13l26.8,16.7
			l26.8-16.7c2.2-1.6,8.9-6.5,8.9-13C335.7,131.5,335.6,94.6,335.6,94.6z M269.4,100.8c-0.4-0.3-0.3-0.8,0-1.1
			c0.3-0.3,0.8-0.3,1.1,0l3,3l3-3c0.3-0.3,0.8-0.3,1.1,0c0.4,0.3,0.3,0.8,0,1.1l-3,3l3,3c0.3,0.3,0.3,0.8,0,1.2
			c-0.2,0.3-0.8,0.3-1.1,0l-3-3l-3,3c-0.3,0.3-0.8,0.3-1.1,0c-0.3-0.3-0.3-0.8,0-1.1l3-3L269.4,100.8z M270.6,129.8
			c-0.3,0.3-0.9,0.3-1.2,0c-0.3-0.3-0.3-0.8,0-1.1l3-3l-3-2.9c-0.3-0.4-0.3-0.9,0-1.2c0.3-0.3,0.8-0.3,1.1,0l3,3l3-3
			c0.4-0.3,0.9-0.3,1.1,0c0.3,0.3,0.3,0.8,0,1.1l-3,3l3,3c0.3,0.3,0.3,0.8,0,1.1c-0.3,0.3-0.8,0.3-1.1,0l-3-2.9L270.6,129.8z
			 M282.1,150.5c0.3,0.3,0.3,0.8,0,1.1c-0.3,0.3-0.8,0.3-1.1,0l-3-3l-2.9,3c-0.3,0.3-0.8,0.3-1.2,0c-0.3-0.3-0.3-0.8,0-1.2l3-2.9
			l-3-3c-0.3-0.3-0.3-0.8,0-1.2c0.3-0.3,0.9-0.3,1.2,0l3,3l3-2.9c0.3-0.4,0.8-0.4,1.2-0.1c0.3,0.3,0.3,0.8,0,1.1l-3,3L282.1,150.5z
			 M304,164.4c-0.3,0.3-0.8,0.3-1.1,0l-2.9-3l-3,3c-0.4,0.3-0.9,0.3-1.1,0c-0.3-0.3-0.3-0.8,0-1.1l3-3l-3-3c-0.4-0.3-0.4-0.8,0-1.1
			c0.3-0.3,0.8-0.3,1.1,0l3,3l2.9-3c0.3-0.3,0.8-0.3,1.2,0c0.3,0.3,0.4,0.9,0,1.1l-3,3l3.1,3C304.3,163.6,304.3,164.1,304,164.4z
			 M322.1,99.6c0.3-0.3,0.8-0.3,1.1,0l3,3l3-3c0.3-0.3,0.8-0.3,1.1,0c0.3,0.3,0.2,0.8,0,1.2l-3,3l3,2.9c0.3,0.4,0.3,0.9,0,1.2
			c-0.4,0.3-0.9,0.3-1.2,0l-3-3l-3,3c-0.3,0.3-0.8,0.3-1.2,0c-0.3-0.3-0.3-0.8,0-1.2l3-3l-3-3C321.9,100.4,321.8,99.9,322.1,99.6z
			 M326,151.7c-0.3,0.3-0.9,0.3-1.1,0l-3-3l-3,3c-0.3,0.3-0.8,0.3-1.1,0c-0.3-0.3-0.3-0.8,0-1.1l3-3l-3-3c-0.3-0.3-0.3-0.8,0-1.2
			c0.3-0.3,0.9-0.3,1.1,0l3,3l2.9-3c0.3-0.3,0.8-0.3,1.2,0c0.3,0.4,0.3,0.8,0,1.2l-3,3.1l3,2.9C326.3,150.8,326.3,151.4,326,151.7z
			 M330.4,128.6c0.3,0.3,0.3,0.8,0,1.2c-0.3,0.3-0.8,0.3-1.1,0l-3-3l-3,3c-0.3,0.3-0.9,0.3-1.1,0c-0.4-0.3-0.3-0.8,0-1.2l3-3l-3-3
			c-0.3-0.3-0.3-0.8,0-1.1c0.3-0.3,0.8-0.3,1.1,0l3,3l3-3c0.3-0.3,0.8-0.3,1.1,0c0.3,0.3,0.3,0.8,0,1.2l-3,2.9L330.4,128.6z"/>
		<g>
			<polygon class="st0" points="342.7,187.9 339.7,200.3 345.6,200.4 342.7,187.9 			"/>
			<path class="st0" d="M263.1,186.2c-4.3,0-5.2,5.7-5.1,10.7c0,5.1,0.8,10.7,5.2,10.7c4.3,0,5.1-5.7,5.1-10.7
				C268.3,191.8,267.5,186.2,263.1,186.2z"/>
			<path class="st0" d="M304,186.1c-4.3,0-5.2,5.7-5.2,10.7c0,5.1,0.8,10.7,5.2,10.7c4.3,0,5.1-5.7,5.1-10.7
				C309.2,191.8,308.4,186.1,304,186.1z"/>
			<path class="st0" d="M368.9,171.7l-46.5,0l-44.9,0l-46.4,0c-14.1,0-25.5,11.4-25.5,25.5c0,14,11.4,25.4,25.5,25.4l46.4,0l44.9,0
				l46.4,0c14.1,0,25.5-11.4,25.5-25.5C394.3,183.1,382.9,171.6,368.9,171.7z M222.4,207.5c2.7,0,3.9-2.5,3.9-5.5l4.7,0
				c-0.2,7.3-3.9,10.1-8.5,10.1c-5.9,0-8.6-6.7-8.6-15.2c0-8.6,2.7-15.2,8.6-15.2c4.7,0,8.4,2.7,8.6,10.1l-4.7,0
				c0-3.1-1.3-5.6-3.9-5.6c-3.1,0-3.9,6.6-3.9,10.7C218.5,201,219.3,207.5,222.4,207.5z M245.9,211.5l0-12.8l-7.8,0l0,12.8l-4.4,0
				l0-29.2l4.4,0l0,11.5l7.8,0l0-11.5l4.4,0l0,29.2L245.9,211.5z M263.1,212.1c-6.7,0-9.8-6.6-9.8-15.2c0-8.6,3-15.2,9.8-15.2
				c6.8,0,9.8,6.6,9.8,15.3C273,205.5,269.9,212.1,263.1,212.1z M283.7,207.5c2.6,0,3.9-2.5,3.9-5.5l4.6,0
				c-0.2,7.3-3.9,10.1-8.5,10.1c-6,0-8.6-6.7-8.6-15.2c0-8.6,2.7-15.3,8.6-15.3c4.7,0,8.4,2.7,8.6,10.1l-4.7,0
				c0-3.1-1.3-5.5-3.9-5.5c-3.1,0-3.9,6.6-3.9,10.7C279.7,200.9,280.6,207.5,283.7,207.5z M304,212c-6.8,0-9.8-6.5-9.8-15.2
				c0-8.6,3-15.2,9.8-15.2c6.7,0,9.8,6.6,9.8,15.2C313.8,205.5,310.7,212,304,212z M330.2,211.4l-13.2,0l0-29.2l4.4,0l0,24.4l8.9,0
				L330.2,211.4z M348.1,211.4l-1.5-6.2l-8.1,0l-1.5,6.2l-4.2,0l7.3-29.2l5.2,0l7.1,29.2L348.1,211.4z M366.5,187l-6.1,0l0,24.4
				l-4.4,0l0-24.4l-6.1,0l0-4.9l16.6,0L366.5,187z M369.2,211.4l0-29.2l13.7,0l0,4.8l-9.3,0.1l0,6.8l8.7,0l0,4.9l-8.7,0l0,7.8l9.6,0
				l0,4.9L369.2,211.4z"/>
		</g>
		<g>
			<path class="st0" d="M317.7,263.3c-1.8-1.1-4.2-1.3-6.4-1.3l-9.6,0l0,22.3c18.7,0,20.5-6.1,20.5-12
				C322.3,269.3,320.8,265.1,317.7,263.3z"/>
			<polygon class="st0" points="240,264.4 232.5,288.5 249.6,288.5 241.7,264.4 			"/>
			<path class="st0" d="M182.4,286.2l-12.3,0l0,19.8c1.7,1,12.6,1.1,14.7,1.1c7.6,0,10.5-5.1,10.5-10.6
				C195.4,289.4,191.3,286.2,182.4,286.2z"/>
			<path class="st0" d="M192.2,269.9c0-3.7-2.3-7.9-7.3-7.9c-1.2,0-13.7-0.4-14.8,0l0,15.6c0.8,0.2,12.8,0.4,13.6,0.4
				C189.3,278,192.2,274,192.2,269.9z"/>
			<path class="st0" d="M386.2,263.3c-1.9-1.1-4.2-1.3-6.4-1.3l-9.6,0l0,22.3c18.7,0,20.5-6.1,20.4-12
				C390.7,269.2,389.3,265.1,386.2,263.3z"/>
			<polygon class="st0" points="438.7,264.3 431.2,288.4 448.4,288.4 440.5,264.3 			"/>
			<path class="st0" d="M528.4,273.3c-3.5,3-8.3,4.9-12.8,5.3c-7.9,0.5-17.9-4.1-19.7-18.6c-0.5-3.7,0.5-7.6,2.8-11.2
				c-2.7,0.6-5.9,1-9.4,1c-10.3,0-20.9-4.7-29.1-12.9c-1.7-1.7-3.2-3.4-4.5-5.2c0,0.3,0,0.5,0,0.6c-0.7,5.6-3.8,10.3-9,13.3
				c-5,2.8-11.6,4-15,2.4c-0.1,0-0.4-0.1-0.6-0.2c-2.6-1-10.7-4-10.7-15.7c0-3.4,1.1-6.6,3.1-9.3c-1.5-0.3-3.2-0.5-4.8-0.5
				c0.7,1.6,1.1,3.5,1.1,5.6c0,4-1.5,7.7-4.3,10.5c-3.1,3-7.2,4.7-11.6,4.7c-4,0-7.8-1.6-10.8-4.6c-0.2-0.1-0.3-0.3-0.5-0.5
				c-0.2,0.2-0.4,0.5-0.7,0.7c-1.7,1.7-4.1,2.8-6.6,2.7l-63.1,0.1l-44.2,0l-63.1,0c-2.5,0-4.9-1-6.7-2.7c-0.2-0.2-0.4-0.5-0.7-0.7
				c-0.2,0.2-0.3,0.4-0.5,0.6c-3,3-6.8,4.6-10.8,4.6c-4.4,0.1-8.6-1.6-11.6-4.6c-2.8-2.8-4.4-6.6-4.4-10.5c0-2.1,0.4-3.9,1.1-5.5
				c-1.7,0-3.3,0.2-4.9,0.5c2.1,2.7,3.2,5.9,3.2,9.3c0,11.7-8.1,14.7-10.7,15.7c-0.2,0-0.4,0.2-0.5,0.2c-3.4,1.5-10,0.4-15.1-2.5
				c-5.1-2.9-8.3-7.6-8.9-13.2c0-0.2,0-0.4,0-0.6c-1.4,1.8-2.8,3.5-4.5,5.2c-8.2,8.2-18.8,12.9-29.1,12.9c-3.5,0-6.7-0.4-9.3-1
				c2.3,3.6,3.2,7.4,2.8,11.1c-1.9,14.5-11.8,19-19.7,18.5c-4.6-0.3-9.4-2.2-12.8-5.2c-2.2,5.8-1.1,12.2,1.1,17.2
				c1.6,3.5,3.7,6.1,5.7,7.8c0.8-3.3,2.2-5.6,3.6-7.2c4.1-4.7,10.1-5.9,12.9-5.9c4.3,0,8.8,1.9,11.9,5.1c3.2,3.1,4.9,7.3,4.9,11.7
				c0,5.7-2.1,10.7-6.1,14.6c-6.7,6.7-16.9,8.6-21.9,8.6c-0.7,0-1.3,0-1.9,0c0.3,0.8,0.5,1.6,0.6,2.4l3.8,0l197.5-0.2l32.2,0
				l197.4-0.1l3.8,0c0.2-0.8,0.4-1.6,0.7-2.4c-0.7,0-1.3,0-2,0c-4.9,0-15.1-1.8-21.9-8.5c-3.9-3.9-6-8.9-6-14.6
				c0-10.1,8.7-16.9,16.8-16.9c2.9,0,8.8,1.2,12.9,5.9c1.4,1.6,2.9,4,3.7,7.3c2.1-1.7,4.1-4.3,5.7-7.8
				C529.5,285.6,530.5,279.1,528.4,273.3z M118.2,316.1l0-0.3c4.4-3,3.8-8.2,3.8-13.2l0-35.3c0-4.9,0.6-10.3-3.8-13.2l0-0.3l24.5,0
				l0,0.3c-4.4,3-3.8,8.4-3.8,13.3l0,35.2c0,4.9-0.6,10.3,3.8,13.2l0,0.3L118.2,316.1z M203.7,311.5c-6.3,4.4-12.5,4.6-20.7,4.5
				l-34,0l0-0.3c5.7-3,4.9-8.2,4.9-13.2l-0.1-35.3c0.1-5,0.8-10.3-4.9-13.2l0-0.2l34.6,0c6.2,0,11.3,0,16.1,3.1
				c4.8,3.1,7.8,6.8,7.8,11.8c0,6.3-5.3,10.1-12.2,11.9c10,1.1,16.7,8,16.7,16.2C211.9,302.7,209.1,307.6,203.7,311.5z M279.4,315.9
				L279.4,315.9l-25.9,0.1l0-0.3c2.3-1.4,4-2.7,4-5.8c0-1.6-0.2-2.1-0.8-3.6l-3.3-9.2l-23.9,0l-2.3,6.5c-0.6,1.9-1.8,4.8-1.8,6.8
				c0,2.6,1.8,3.9,3.5,5.3l0,0.2l-18.5,0l0.1-0.3c3.7-3.3,5-6,6.8-10.9l13.5-37.8c0.6-1.9,2.2-5.6,2.2-7.6c0-2.6-1.8-4.2-3.7-5.5
				l0-0.3l32.3,0c0,0-4.8,6-3.5,8.9c1.3,3,19.4,49.1,21.3,53L279.4,315.9z M339,316.2c-7.5,0.4-11-0.5-14.9-6.3l-10.2-18.2
				l-12.2,0.2l0,10.6c0,4.9-0.8,10.3,4.7,13.2l0,0.3l-24.8,0l0-0.2c5.5-3,4.7-8.4,4.7-13.2l0-35.2c0-4.9,0.8-10.3-4.7-13.2l0-0.2
				l32.9,0c5.4,0,9.9-0.1,14.9,2.2c6.6,3,10.4,7.6,10.4,13.9c0,7.1-4.2,12.8-11.5,15.4l11,18.8c3.1,4.3,4.2,8.9,8.7,12.1L339,316.2z
				 M478.2,315.8L478.2,315.8l-26,0.1l0-0.3c2.3-1.4,4-2.7,4-5.8c0-1.6-0.2-2.1-0.7-3.6l-3.3-9.1l-23.8,0l-2.4,6.4
				c-0.7,1.9-1.8,4.8-1.8,6.8c0,2.6,1.8,3.9,3.6,5.3l0,0.3l-11.4,0c0.1,0.1,0.1,0.1,0.2,0.1l-9.1,0.1c-7.5,0.4-11-0.5-14.9-6.3
				l-10.2-18.2l-12.1,0.2l0,10.5c0,4.9-0.8,10.4,4.7,13.3l0,0.3l-24.7,0l0-0.3c5.4-2.9,4.6-8.3,4.6-13.3l0-35.1
				c0-4.9,0.8-10.3-4.7-13.2l0-0.3l32.9,0c5.5,0,9.9-0.1,14.9,2.1c6.6,3.1,10.4,7.6,10.3,14c0,7.1-4.1,12.7-11.5,15.4l11,18.8
				c1.9,2.6,3.1,5.4,4.7,7.9c1.4-2,2.4-4.2,3.5-7.2l13.5-37.7c0.5-1.9,2.1-5.6,2.1-7.6c0-2.6-1.8-4.2-3.7-5.4l0-0.3l32.3-0.1
				c0,0-4.8,6-3.5,9c1.3,3,19.5,49.1,21.4,52.9L478.2,315.8z"/>
		</g>
	</g>
</g>
</svg>
