<?xml version="1.0" encoding="utf-8"?>
<!-- Generator: Adobe Illustrator 28.0.0, SVG Export Plug-In . SVG Version: 6.00 Build 0)  -->
<svg version="1.1" id="Capa_1" xmlns="http://www.w3.org/2000/svg" xmlns:xlink="http://www.w3.org/1999/xlink" x="0px" y="0px"
	 viewBox="0 0 600 450" style="enable-background:new 0 0 600 450;" xml:space="preserve">
<style type="text/css">
	.st0{fill:#503629;}
	.st1{fill:#FFFFFF;}
	.st2{fill:#85754E;}
	.st3{fill:#EA0029;}
	.st4{opacity:0.2;fill:#503629;}
	.st5{opacity:0.5;}
	.st6{opacity:0.2;}
</style>
<g>
	<circle class="st0" cx="521.1" cy="205.6" r="19.9"/>
	<g>
		<g>
			<g>
				<path class="st1" d="M521.5,193.3c6.7,0,12,5.5,12,12.3c0,6.9-5.4,12.3-12.1,12.3c-6.7,0-12.1-5.4-12.1-12.3
					C509.3,198.8,514.8,193.3,521.5,193.3L521.5,193.3z M521.4,195.3c-5.4,0-9.8,4.6-9.8,10.3c0,5.8,4.4,10.4,9.8,10.4
					c5.4,0.1,9.8-4.5,9.8-10.4C531.3,199.9,526.9,195.3,521.4,195.3L521.4,195.3z M519.1,212.7l-2.2,0l0-13.7
					c1.1-0.2,2.2-0.3,3.8-0.3c2.1,0,3.5,0.5,4.3,1.1c0.8,0.6,1.3,1.5,1.3,2.8c0,1.8-1.2,2.9-2.7,3.3l0,0.1c1.2,0.2,2,1.3,2.2,3.3
					c0.4,2.1,0.7,3,0.9,3.4l-2.3,0c-0.3-0.4-0.6-1.7-0.9-3.5c-0.3-1.7-1.2-2.4-2.9-2.4l-1.5,0L519.1,212.7z M519.2,205.2l1.6,0
					c1.8,0,3.3-0.7,3.3-2.3c0-1.2-0.8-2.4-3.3-2.4c-0.7,0-1.2,0.1-1.6,0.1L519.2,205.2z"/>
			</g>
		</g>
	</g>
	<path class="st0" d="M336.8,41.6C336.8,41.6,336.8,41.6,336.8,41.6L336.8,41.6L336.8,41.6z M545.9,248.3c-4-3-8-5.2-11.7-6.7
		c2.5-2.2,3.9-5.5,3.9-8.9l0,0c0-6.7-5.3-12.1-12-12.3c0,0-0.1,0-0.2,0c-0.1,0-0.2,0-0.3,0c-3.2,0.1-6.1,1.4-8.3,3.5
		c-2.8-6.4-8.8-9.9-14.3-10.1c2.5-4.2,3.6-8.9,3.6-12.6l-0.1-0.3c0.1-7.3-6.5-21.4-24-21.6l-0.2,0c-11.4,0.1-20.2,5.3-25.4,12.5
		c-0.8,1.1-1.6,2.2-2.3,3.4c-0.5-6.7-6.1-12-12.9-12l-0.8,0l0,0c-2.3,0.1-4.4,0.8-6.1,2c1.6-4.6,2.3-9.1,2.3-12.7c0-0.3,0-0.7-0.1-1
		c0-1.9-0.2-3.5-0.4-4.9c-0.3-2.6-2.5-4.4-5.1-4.4l-0.1,0c0,0-0.1,0-0.3,0c-0.2,0-8.7,0.3-17.6,5.1c-1,0.5-2,1.1-3,1.8
		c1.6-4.5,2.3-8.9,2.3-12.9l-0.1-0.1c0-11.4-4.8-19.8-7.2-23.2c-0.8-1.2-2.1-2-3.6-2.2c-0.2,0-0.4,0-0.7-0.1c-1.2,0-2.3,0.4-3.3,1.2
		c-0.3,0.2-8.4,7-11.7,19.3c-3.7-6.5-10.7-12.5-22.6-14.3c-0.2,0-0.6-0.1-0.9-0.1c-1.1,0-2.1,0.3-3,1c-0.4,0.3-0.7,0.7-1.1,1.1
		c-0.1-1-0.3-1.9-0.6-2.9c-0.2-0.8-0.7-1.6-1.2-2.2c2.3-3.7,3.9-8.2,4-13.4c0-2.1-0.3-4.3-0.9-6.6c-0.3-1-0.8-1.9-1.6-2.6
		c1.5-3.2,2.5-6.8,2.5-10.8c0-2.1-0.3-4.4-0.9-6.6c-0.3-1.1-0.9-2-1.7-2.7c0.5-0.8,0.8-1.8,0.8-2.8c0-0.3,0-0.7,0-0.9
		c-0.4-1.7-1.5-3.1-3.1-3.8l-27.3-10.9c-0.7-0.3-1.3-0.4-1.9-0.4c-1.8,0-3.5,1-4.5,2.6l-8.6,14.9c-0.2,0.3-0.3,0.7-0.4,0.9l-1.4-1
		c1.4-3,2-6.4,2.1-9.8l0-0.1c0-4.6-1.5-10.3-6.7-13.2c0-0.2-0.1-0.5-0.1-0.8c0-1.1-0.1-2.2-0.1-2.8c3.3,0.5,7.6,1,12,0.9
		c7.7,0,16.9-1.4,22.4-9.5c0.6-0.9,0.8-1.8,0.8-2.8c0-1-0.3-2-0.8-2.8c-0.9-1.5-2.6-2.4-4.3-2.4c-0.2,0-0.5,0-0.8,0.1
		c-0.2,0-0.5,0.1-0.7,0.1c0.5-1.2,0.9-2.6,1.2-4.1l0-0.1l0-0.4c0-0.1,0-0.2,0-0.3l0,0l0,0l0,0c0-0.1,0-0.1,0-0.1l0,0c0,0,0,0,0,0
		c0-1.6-0.8-3.2-2.1-4.1c-0.9-0.7-1.9-1-3-1c-0.5,0-1.1,0.1-1.6,0.3c-5.4,1.7-9.6,2.2-13.1,2.2l-0.2,0c-5.9,0-10.4-1.6-16.3-1.7
		c-0.6,0-1.3,0.1-2,0.1c-13.3,0.9-19.4,8.9-19.4,15.2c0,0.1,0,0.2,0,0.3c0,0.7,0.1,1.7,0.4,2.6l0.1,0.2c0.3,1,2,7,4.2,10.8l0.5,0.9
		l0.1-0.1c1,1.3,2.3,2.5,4.1,3.1c-2,2.9-2.7,6.5-2.6,9.6c0,0,0,0.1,0,0.3c0,3.2,0.7,6.6,2.1,9.6l-1.2,0.9c-0.1-0.3-0.2-0.5-0.4-0.9
		L277.5,75c-1-1.6-2.7-2.6-4.5-2.6c-0.6,0-1.3,0.1-1.9,0.4l-27.2,10.9c-1.7,0.6-2.8,2.1-3.1,3.8c-0.1,0.3-0.1,0.7-0.1,1
		c0,1,0.3,2,0.8,2.8c-0.8,0.6-1.4,1.6-1.7,2.7c-0.6,2.3-0.9,4.5-0.9,6.6c0,4,1,7.7,2.5,10.9c-0.8,0.6-1.3,1.5-1.6,2.6
		c-0.6,2.3-0.9,4.5-0.9,6.7c0,5.2,1.7,9.7,4,13.4c-0.6,0.6-1,1.3-1.2,2.1c-0.3,1-0.4,2-0.6,3c-0.3-0.4-0.7-0.7-1.1-1
		c-0.9-0.7-2-1.1-3-1.1c-0.3,0-0.6,0-0.9,0.1c-11.8,1.8-18.8,7.8-22.5,14.4c-3.3-12.3-11.4-19-11.7-19.3c-1-0.8-2.2-1.2-3.4-1.3
		c-0.2,0-0.4,0-0.7,0.1c-1.3,0.2-2.7,0.9-3.4,2.1c-2.5,3.6-7.3,11.9-7.3,23.2l0,0.2c0,4,0.7,8.3,2.3,12.8c-1-0.6-2-1.2-3-1.7
		c-9-4.8-17.4-5-17.8-5.1c-0.1,0-0.1,0-0.2,0c-2.6,0-4.8,1.9-5.1,4.4c-0.2,1.4-0.3,3-0.3,4.9c0,0.2,0,0.6,0,1c0,3.5,0.6,8,2.3,12.7
		c-2-1.2-4.4-2-6.9-2l-0.8,0l0,0c-6.4,0.4-11.6,5.5-12,12c-0.7-1.2-1.5-2.3-2.3-3.5c-5.3-7.1-14-12.4-25.4-12.4l-0.1,0
		c0,0-0.1,0-0.3,0c-17.4,0.2-24,14.3-24,21.9c0,3.7,1.2,8.4,3.7,12.6c-5.5,0.2-11.6,3.6-14.4,10.1c-2.2-2.1-5.1-3.5-8.5-3.5
		c0,0-0.1,0-0.2,0c-0.1,0-0.2,0-0.5,0c-6.3,0.2-11.4,5.4-11.6,11.9c0-0.1,0,0,0,0.1c0,0,0,0.2,0,0.2c0,0,0,0.1,0,0.1
		c0,0.1,0,0.2,0,0.5c0.2,3.3,1.6,6.2,3.9,8.4c-3.7,1.5-7.7,3.6-11.6,6.7c-8.8,6.8-16.5,18.7-16.5,36.2c0,0,0,0.1,0,0.3l0,0.2
		c0.3,14.8,10,30.4,25.5,38c-3,2.1-5,5.6-5,9.6l0,0.2c0.2,5.5,3.9,10.1,9,11.3c-0.8,2.2-1.3,4.6-1.3,7.1c0,11.3,9.2,20.4,20.4,20.4
		c0.1,0,0.3,0,0.5,0c10.1-0.2,18.4-7.8,19.7-17.6l177.4-0.1l32.3,0l177.4-0.2c1.4,10,9.9,17.6,20.2,17.6c0.2,0,0.3,0,0.5,0
		c10.9-0.2,19.7-9,19.9-20c0-0.1,0-0.3,0-0.4l0-0.1c-0.1-2.4-0.5-4.8-1.3-7.1c5.2-1.2,9-5.9,9-11.4c0-4-2-7.5-5-9.6
		c15.7-7.7,25.4-23.6,25.4-38.4l0-0.2C562.4,267,554.6,255.1,545.9,248.3z"/>
	<path class="st2" d="M300,174.2l26.9-16.7c2.2-1.6,8.9-6.5,8.9-13c0-10.7-0.1-47.8-0.1-47.8l-20.4,0l-9.7,17.3l11.2,0l0,22.7
		c0,3.7-0.9,6.7-4.7,9c-3.6,2.3-12.3,7.5-12.3,7.5s-8.8-5.2-12.4-7.4c-3.8-2.4-4.7-5.4-4.7-9.1l0-22.7l11.2,0l-9.7-17.3l-20.3,0
		c0,0,0,37.1,0,47.7c0,6.5,6.6,11.5,9,13L300,174.2z"/>
	<g>
		<path class="st2" d="M98.4,201.6c0,6.4,4.7,17,14.6,17c10,0,13.2-4.1,14.8-6.5c4.6,6.5-4.2,21.1-23.7,23.7
			c3.2-3.9,4.2-16.6-6.8-16.6c-5,0-11.2,4-11.2,12.6c0,3.3,4.9,15.3,23.9,15.3c19-0.1,35.4-18.6,35.4-31.8
			c0-13.3-8.1-30.6-28.1-30.6C103.2,184.8,98.4,196.3,98.4,201.6z"/>
		<polygon class="st2" points="281.7,92.5 273.1,77.6 245.8,88.5 259.5,101.5 259.5,92.5 		"/>
		<path class="st2" d="M244.8,95.2l14.7,13.2l0,12C254.3,120.4,240.7,109.9,244.8,95.2z"/>
		<path class="st2" d="M244.8,115.4l14.7,13.1l0,12C254.4,140.5,240.8,130,244.8,115.4z"/>
		<path class="st2" d="M246.7,137.6l14.8,13.1l0.3,11.9C256.5,162.7,242.7,152.2,246.7,137.6z"/>
		<path class="st2" d="M190.1,221.8c0,0-4.7,3.6-4.7,8.9c0.1,5.3,4.6,9.6,10.5,9.7c6,0,10.5-5.8,10.5-11.7c0-16-16.7-24.9-30.8-22.9
			c-17.7,2.6-27.7,15.6-26.2,28.8c1.1,10.3,14.2,12.2,16.4,11.3c2.1-1,8-2,8-10.9c0-6.8-6.8-10.5-8.8-10.3
			C166.7,222.3,180.3,216.3,190.1,221.8z"/>
		<path class="st2" d="M77,244.6c-7.1,0-34.3,8.3-34.3,40.4c0,17.3,16.4,37.9,40.5,37.9c7,0,22.5-4.2,22.5-17.7
			c0-7.4-6.5-11.4-11.3-11.4c-2.7,0-13.2,2.1-11.5,15.3C70,310,55,281.9,71.2,265.9c0.1,9.8,24.1,18.4,27-3.6
			C99,254.2,88.7,244.5,77,244.6z"/>
		<path class="st2" d="M198.5,136.2c-3.7,5.3-14.7,25.8,5.7,46.8C219.7,153.9,198.5,136.2,198.5,136.2z"/>
		<path class="st2" d="M168.3,167.7c-1.2,7.7,0.1,34.3,31,36.5C202.2,168.9,168.3,167.7,168.3,167.7z"/>
		<path class="st2" d="M215.8,172.8c-1.5-6.9-2.8-26.4,21.1-30.6C240.7,171.5,215.8,172.8,215.8,172.8z"/>
		<path class="st2" d="M74,240.1c4,0,7.1-3.2,7.1-7.1c0-3.9-3.2-7.1-7.1-7.1c-3.9,0-7.1,3.2-7.1,7.1C66.9,236.9,70.1,240.1,74,240.1
			z"/>
		<path class="st2" d="M69.9,339.7c3.6,0,6.7-3,6.7-6.7c0-3.7-3-6.6-6.7-6.6c-3.7,0-6.6,3-6.6,6.7C63.3,336.7,66.3,339.7,69.9,339.7
			z"/>
		<path class="st2" d="M158.3,204.2c4.4,0,7.9-3.5,7.8-7.8c0-4.3-3.5-7.8-7.9-7.8c-4.3,0-7.8,3.6-7.8,7.9
			C150.4,200.8,154,204.3,158.3,204.2z"/>
		<path class="st2" d="M501.5,201.4c0,6.3-4.6,17-14.6,17c-9.9,0-13.2-4.1-14.8-6.4c-4.6,6.5,4.2,21.1,23.7,23.7
			c-3.2-3.9-4.3-16.7,6.8-16.7c5,0,11.2,4,11.2,12.6c0,3.3-4.9,15.3-23.9,15.3c-19,0-35.4-18.4-35.4-31.7c0-13.3,8.1-30.6,28.1-30.6
			C496.8,184.6,501.5,196.1,501.5,201.4z"/>
		<polygon class="st2" points="318.1,92.5 326.7,77.5 354,88.5 340.3,101.5 340.3,92.5 		"/>
		<path class="st2" d="M355.1,95.2l-14.7,13.2l0,12C345.5,120.4,359.1,109.8,355.1,95.2z"/>
		<path class="st2" d="M355.1,115.3l-14.7,13.2l0,12C345.5,140.5,359.1,129.9,355.1,115.3z"/>
		<path class="st2" d="M353.2,137.5l-14.7,13.2l-0.3,12C343.4,162.6,357.3,152.2,353.2,137.5z"/>
		<path class="st2" d="M410,221.7c0,0,4.6,3.6,4.6,8.9c0,5.3-4.5,9.7-10.5,9.7c-6,0-10.5-5.8-10.5-11.7c0-15.9,16.7-24.9,30.8-22.8
			c17.7,2.5,27.7,15.5,26.2,28.7c-1.1,10.3-14.1,12.3-16.3,11.3c-2.1-0.9-7.9-2-7.9-10.9c0-6.8,6.8-10.5,8.7-10.2
			C433.3,222.1,419.6,216.2,410,221.7z"/>
		<path class="st2" d="M523,244.3c7.1,0,34.4,8.2,34.3,40.4c0,17.4-16.4,37.9-40.4,37.9c-7.1,0-22.5-4.3-22.5-17.7
			c0-7.3,6.5-11.4,11.3-11.4c2.7,0,13.2,2.1,11.5,15.3c12.9,0.9,27.9-27.1,11.7-43.2c0,9.8-24,18.4-26.8-3.6
			C501,254,511.3,244.3,523,244.3z"/>
		<path class="st2" d="M296.7,57c0.9,1,1.5,3.3,1.1,9.1c-0.2,2.5-0.6,4-1.9,4.5c-7,2.8-5.7,15.8-0.9,20.4l-6,4.4l10.9,17l10.9-17.1
			l-6-4.3c4.8-4.6,6.1-17.6-0.9-20.4c-1.2-0.4-1.7-2-1.9-4.5c-0.4-6,0.2-8.3,1.2-9.2"/>
		<path class="st2" d="M401.3,136c3.7,5.3,14.8,25.7-5.5,46.8C380.2,153.9,401.3,136,401.3,136z"/>
		<path class="st2" d="M431.5,167.5c1.2,7.7-0.1,34.3-30.9,36.6C397.7,168.8,431.5,167.5,431.5,167.5z"/>
		<path class="st2" d="M384.1,172.7c1.4-6.9,2.8-26.5-21.2-30.6C359.2,171.4,384.1,172.7,384.1,172.7z"/>
		<path class="st2" d="M526,239.9c-3.9,0-7.1-3.2-7.1-7.1c0-3.9,3.2-7.1,7.1-7.1c3.9,0,7.1,3.2,7.1,7.1
			C533.1,236.7,529.9,239.9,526,239.9z"/>
		<path class="st2" d="M530.1,339.4c-3.7,0-6.6-3-6.6-6.7c0-3.6,3-6.6,6.7-6.7c3.7,0,6.6,3,6.6,6.7
			C536.9,336.4,533.9,339.4,530.1,339.4z"/>
		<path class="st2" d="M441.7,204.1c-4.3,0-7.8-3.5-7.9-7.8c0-4.3,3.5-7.9,7.8-7.8c4.3,0,7.9,3.5,7.8,7.8
			C449.5,200.6,446,204.1,441.7,204.1z"/>
		<path class="st2" d="M514.3,336.1L514.3,336.1l-198.1,0l-32.3,0l-198.2,0.1l0,0c-8.2,0.3-14.7,7-14.7,15.3
			c0,8.4,6.8,15.2,15.2,15.2c8.5,0,15.3-6.9,15.3-15.3c0-0.8-0.1-1.6-0.2-2.3l182.5-0.2l32.3,0l182.5-0.1c-0.1,0.8-0.2,1.6-0.2,2.3
			c0,8.5,6.8,15.3,15.3,15.3c8.4,0,15.2-6.8,15.2-15.3C529.1,343.1,522.6,336.4,514.3,336.1z"/>
		<path class="st2" d="M385.5,230.9l-63.3,0l-44.3,0l-63.3,0c-2.2,0-3.9,1.8-3.9,3.9c0,2.1,1.7,3.9,3.9,3.8l63.3,0l44.3,0l63.3,0
			c2.2,0,3.8-1.8,3.9-3.9C389.4,232.6,387.6,230.9,385.5,230.9z"/>
	</g>
	<path class="st3" d="M304.2,119.1l8.2,0l0,17.1c0,2.8-0.7,4.9-3.4,6.6c-2.6,1.7-9,5.4-9,5.4s-6.4-3.8-9-5.4
		c-2.8-1.8-3.5-3.9-3.5-6.6l0-17.1l8.2,0L304.2,119.1z"/>
	<path class="st3" d="M303.2,57.2c8.6,1.3,27.1,4.8,33.9-5.5c-5.2,0.8-8.1-0.9-10-2.4c1.6-1.3,4.8-5.3,4.5-7.6
		c-17,5.3-24.6,0.1-32.7,0.8c-13.5,1.2-15.4,9-14.6,11.5c0,0,2,7,3.8,9.8c1.8,3,4.2,1.7,2.9-0.4c-1.2-1.9,1.7-4.9,5.7-6.1
		C298,57,300.7,57,303.2,57.2z"/>
	<path class="st3" d="M369.1,174.1l-46.6,0l-45,0l-46.6,0c-14.1,0-25.6,11.5-25.6,25.6c0,14.1,11.5,25.5,25.6,25.5l46.6,0l45,0
		l46.6,0c14.1,0,25.5-11.5,25.6-25.6C394.6,185.5,383.2,174.1,369.1,174.1z"/>
	<g>
		<path class="st3" d="M276.5,101.8l-3,3l-3-3c-0.3-0.3-0.9-0.3-1.1,0c-0.3,0.3-0.3,0.8,0,1.1l3,3l-3,3c-0.3,0.3-0.3,0.8,0,1.1
			c0.3,0.4,0.8,0.4,1.1,0l3-3l3,3c0.3,0.4,0.9,0.4,1.1,0c0.3-0.3,0.3-0.9,0-1.2l-3-3l3-3c0.3-0.4,0.4-0.9,0-1.2
			C277.3,101.5,276.8,101.5,276.5,101.8z"/>
		<path class="st3" d="M276.4,123.8l-3,3l-3-3c-0.3-0.3-0.8-0.3-1.1,0c-0.3,0.3-0.3,0.8,0,1.2l3,2.9l-3,3c-0.3,0.3-0.3,0.8,0,1.1
			c0.3,0.3,0.8,0.3,1.2,0l3-3l3,2.9c0.3,0.3,0.9,0.3,1.2,0c0.3-0.3,0.3-0.8,0-1.1l-3-3l3-3c0.3-0.3,0.3-0.8,0-1.1
			C277.3,123.4,276.8,123.5,276.4,123.8z"/>
		<path class="st3" d="M280.9,145.8l-3,2.9l-3-3c-0.3-0.3-0.8-0.3-1.2,0c-0.3,0.4-0.3,0.8,0,1.2l3,3.1l-3,2.9
			c-0.3,0.3-0.3,0.9,0,1.2c0.4,0.3,0.9,0.3,1.2,0l3-3l3,3c0.3,0.3,0.8,0.3,1.2,0c0.3-0.3,0.3-0.8,0-1.1l-3-3l3-3
			c0.3-0.3,0.3-0.8,0-1.1C281.8,145.4,281.2,145.4,280.9,145.8z"/>
		<path class="st3" d="M323.4,101.7l3,3l3-3c0.3-0.3,0.8-0.3,1.1,0c0.3,0.3,0.3,0.8,0,1.2l-3,3l3,2.9c0.3,0.4,0.3,0.9,0,1.2
			c-0.4,0.3-0.9,0.3-1.2,0l-3-3l-3,3c-0.3,0.3-0.8,0.3-1.2,0c-0.3-0.3-0.3-0.8,0-1.2l3-3l-3-3c-0.3-0.3-0.4-0.8,0-1.2
			C322.6,101.4,323.1,101.4,323.4,101.7z"/>
		<path class="st3" d="M323.4,123.8l3,3l3-3c0.3-0.3,0.8-0.3,1.1,0c0.3,0.3,0.3,0.8,0,1.2l-3,2.9l3,3c0.3,0.3,0.3,0.8,0,1.2
			c-0.3,0.3-0.8,0.3-1.1,0l-3-3l-3,3c-0.3,0.3-0.9,0.3-1.1,0c-0.4-0.3-0.3-0.8,0-1.2l3-3l-3-3c-0.3-0.3-0.3-0.9,0-1.1
			C322.6,123.4,323.1,123.4,323.4,123.8z"/>
		<path class="st3" d="M319,145.7l3.1,3l2.9-3c0.3-0.3,0.8-0.3,1.2,0c0.3,0.4,0.3,0.8,0,1.2l-3,3.1l3,2.9c0.3,0.3,0.3,0.9,0,1.2
			c-0.3,0.3-0.9,0.3-1.1,0l-3-3l-3,3c-0.3,0.3-0.8,0.3-1.1,0c-0.3-0.3-0.3-0.8,0-1.1l3-3l-3-3c-0.3-0.3-0.3-0.8,0-1.2
			C318.1,145.4,318.7,145.4,319,145.7z"/>
		<path class="st3" d="M302.9,158.6l-2.9,3l-3-3c-0.3-0.3-0.8-0.3-1.1,0c-0.4,0.3-0.4,0.9,0,1.1l3,3l-3,3c-0.3,0.3-0.3,0.8,0,1.1
			c0.3,0.3,0.8,0.3,1.2,0l3-3l2.9,3c0.4,0.3,0.9,0.3,1.2,0c0.4-0.3,0.4-0.8,0.1-1.1l-3.1-3l3-3c0.3-0.3,0.3-0.8,0-1.1
			C303.7,158.2,303.2,158.2,302.9,158.6z"/>
	</g>
	<path class="st3" d="M83.2,328.4c5,0,15.3-1.8,21.9-8.6c4-4,6.1-9,6.1-14.7c0-4.5-1.7-8.7-4.9-11.8c-3.2-3.2-7.7-5.1-12-5.1
		c-2.8,0-8.9,1.2-12.9,5.9c-1.4,1.6-2.8,4-3.7,7.2c-2.1-1.7-4.1-4.3-5.7-7.8c-2.2-5-3.3-11.5-1.1-17.3c3.4,3,8.3,4.9,12.9,5.2
		c8,0.5,17.9-4,19.8-18.6c0.4-3.8-0.5-7.6-2.8-11.2c2.7,0.6,5.8,1,9.4,1c10.3,0,20.9-4.8,29.2-13c1.7-1.7,3.1-3.4,4.5-5.2
		c0,0.2,0,0.4,0,0.6c0.6,5.6,3.8,10.3,9,13.2c5.1,2.9,11.7,4,15.1,2.5c0.1,0,0.3-0.1,0.5-0.2c2.6-1,10.8-4,10.7-15.8
		c0-3.4-1.1-6.6-3.2-9.3c1.6-0.3,3.2-0.5,4.9-0.5c-0.6,1.6-1.1,3.5-1.1,5.6c0,4,1.6,7.7,4.4,10.5c3,3.1,7.2,4.7,11.6,4.7
		c4,0.1,7.8-1.6,10.8-4.6c0.2-0.1,0.3-0.4,0.5-0.6c0.2,0.2,0.5,0.5,0.7,0.7c1.8,1.8,4.1,2.7,6.7,2.7l63.3,0l44.3,0l63.3-0.1
		c2.5,0,4.9-1,6.7-2.7c0.3-0.2,0.4-0.5,0.7-0.7c0.2,0.2,0.3,0.3,0.5,0.5c3,3,6.8,4.6,10.8,4.6c4.5,0,8.6-1.7,11.7-4.7
		c2.8-2.8,4.3-6.6,4.3-10.6c0-2.1-0.4-4-1.1-5.6c1.7,0,3.3,0.2,4.8,0.5c-2,2.7-3.1,6-3.1,9.3c0,11.8,8.1,14.8,10.7,15.8
		c0.2,0.1,0.5,0.2,0.6,0.2c3.4,1.5,10,0.4,15.1-2.5c5.2-3,8.3-7.7,9-13.3c0-0.2,0-0.4,0-0.6c1.3,1.8,2.8,3.6,4.5,5.3
		c8.2,8.2,18.9,12.9,29.2,12.9c3.5,0,6.6-0.4,9.4-1c-2.3,3.6-3.3,7.5-2.8,11.2c1.9,14.6,11.8,19.1,19.8,18.6
		c4.6-0.3,9.4-2.2,12.9-5.3c2.1,5.8,1.1,12.3-1.1,17.3c-1.6,3.5-3.7,6.1-5.7,7.8c-0.8-3.3-2.3-5.7-3.7-7.3c-4-4.7-10-5.9-12.9-5.9
		c-8.1,0-16.9,6.8-16.9,17c0,5.6,2.1,10.7,6.1,14.6c6.8,6.7,17,8.5,22,8.5c0.7,0,1.3,0,2,0c-0.3,0.8-0.5,1.6-0.7,2.4l-3.8,0
		l-198.1,0.1l-32.3,0l-198.2,0.2l-3.8,0c-0.1-0.8-0.4-1.7-0.6-2.4C81.9,328.4,82.5,328.4,83.2,328.4z"/>
	<g>
		<path class="st0" d="M470.9,208.9l-0.9,1.3c-1.8,2.5-1.8,6.1-0.2,9.7c1,2.3,2.9,5,5.6,7.3c-1.9-2-3.4-4.1-4.2-6
			c-1.6-3.7-1.5-7.2,0.3-9.7l0.7-1c-0.1-0.1-0.2-0.3-0.3-0.4L470.9,208.9z"/>
		<path class="st0" d="M488.6,244.6c-9.1,0-17.4-4.3-23.6-10.1c6.3,6.5,15.1,11.5,25,11.5c18.8,0,22.8-11.8,22.8-14.2
			c0-3.5-1.1-6.5-3.2-8.5c-0.2-0.2-0.5-0.5-0.8-0.7c1.7,2,2.6,4.7,2.6,7.8C511.4,232.7,507.5,244.5,488.6,244.6z"/>
		<path class="st0" d="M485.6,216.1c-6.1,0-9.4-1.6-11.4-3.2c1.7,2,5,4.6,12.8,4.6c9.5,0,13.5-10.4,13.5-15.9
			c0-2.9-1.5-7.3-4.8-10.6c-0.2-0.2-0.5-0.4-0.8-0.6c2.9,3.2,4.2,7.2,4.2,9.9C499.1,205.7,495.2,216,485.6,216.1z"/>
		<path class="st0" d="M349.1,111.5c-2.4,3.1-5.3,5.3-7.7,6.3l0,1.9c2.5-0.6,6.3-3.2,9.1-6.9c2.5-3.2,5-8.3,3.8-14.8l-1.2,1.1
			C353.3,104.5,351.2,108.7,349.1,111.5z"/>
		<path class="st0" d="M354.4,118.1l-1.3,1.1c0.2,5.3-1.8,9.5-4,12.4c-2.3,3.1-5.3,5.2-7.7,6.3l0,1.9c2.5-0.7,6.3-3.1,9.1-6.8
			C353,129.7,355.5,124.6,354.4,118.1z"/>
		<path class="st0" d="M348.7,154.9c2.4-3.2,5-8.2,3.8-14.6l-1.3,1.1c0.2,5.2-1.9,9.4-4,12.1c-2.6,3.4-5.6,5.5-7.9,6.5l0,1.9
			C341.7,161.3,345.6,159,348.7,154.9z"/>
		<path class="st0" d="M417.9,217.2c-3.7,0-7,0.8-9.8,2.4l-1.4,0.9l1.3,1c0,0,0.1,0.1,0.3,0.2l1.2-0.7c2.8-1.6,6.1-2.4,9.8-2.4
			c6.6,0,12.9,2.5,15.6,4.5l-0.2-0.3C433.3,220.8,425.8,217.1,417.9,217.2z"/>
		<path class="st0" d="M402.9,238c-2,0-3.9-0.9-5.5-2.2c0.3,0.3,0.5,0.7,0.8,1c1.7,1.7,3.9,2.6,6.1,2.7c5.2,0,9.4-3.8,9.3-8.6
			c0-4.5-3.8-7.6-4.2-7.9c1.2,1.4,2.8,3.7,2.8,6.6C412.2,234.2,408.1,238,402.9,238z"/>
		<path class="st0" d="M434.6,243.5c-0.8,0-1.1-0.1-1.1-0.1l-0.9-0.4c-0.9-0.3-2.1-0.7-3.1-1.5c1.4,1.7,3.2,2.4,4.5,2.9l0.9,0.3
			c0,0,0.3,0.1,1.1,0.1c2.7,0,12.7-1.8,13.6-10.5c0.8-7.1-2.1-13.8-7.2-18.8c4.3,4.8,6.5,10.9,5.8,17.4
			C447.3,241.7,437.3,243.5,434.6,243.5z"/>
		<path class="st0" d="M526.5,261.5l0,2.7c0,4.5-6.4,9.1-12.7,9.1c-2.8,0-5.1-0.9-7-2.5c2.1,2.5,4.9,3.9,8.4,3.8
			c6.3,0,12.7-4.6,12.7-9.1l0-2.7l0.6,0.6c0,0,0,0-0.1-0.1L526.5,261.5z"/>
		<path class="st0" d="M514.9,307.1l-0.2,1.3l1.5,0c0.5-4.3-0.3-7.8-2.4-10.2c-0.3-0.4-0.7-0.6-1.1-0.9
			C514.7,299.7,515.4,303,514.9,307.1z"/>
		<path class="st0" d="M544.4,255.1c5.4,5.5,10.6,14.4,10.7,28.1c0,17.3-16.7,36.7-39.2,36.7l0,0c-3.5,0-11.2-1.3-16.5-5.9
			c0.2,0.2,0.4,0.5,0.6,0.7c5.2,5.2,13.6,6.6,17.3,6.6l0,0c22.5,0,39.2-19.4,39.2-36.7C556.4,269.7,550.2,260.5,544.4,255.1z"/>
		<path class="st0" d="M395.2,179.3c0.3,0.7,0.5,1.3,0.9,2c17.6-19.3,8.5-37.5,5-43c-0.1,0.1-0.2,0.2-0.4,0.4
			C404.6,145.6,410.6,162,395.2,179.3z"/>
		<path class="st0" d="M422.8,190.9c-4.7,6-11.9,9.5-21.1,10.7c0,0.6-0.1,1.1,0,1.6c9.9-1,17.5-4.6,22.5-10.9
			c6.2-7.8,6.9-18,6.4-23.2c-0.3,0-0.8,0.1-1.3,0.2C429.6,174.7,428.5,183.8,422.8,190.9z"/>
		<path class="st0" d="M381.9,170.6c-2.2-0.3-7.7-1.5-12.3-5.4c4.8,5.1,11.2,6.5,13.7,6.8c0.7-3.9,1.2-11.9-3.3-18.5
			c-0.9-1.4-2.1-2.6-3.4-3.7c0.7,0.7,1.4,1.5,2,2.3C383.1,158.7,382.5,166.6,381.9,170.6z"/>
		<path class="st0" d="M529,235.6c-1.1,1.1-2.6,1.8-4.2,1.8c-1.3,0-2.4-0.5-3.4-1.2c1.1,1.5,2.8,2.6,4.8,2.6c1.6,0,3.1-0.6,4.2-1.8
			c1.1-1.1,1.7-2.6,1.7-4.2c0-1.6-0.6-3.1-1.7-4.2c-0.3-0.2-0.6-0.4-0.8-0.6c0.7,1,1.2,2.1,1.2,3.4C530.7,233,530.1,234.5,529,235.6
			z"/>
		<path class="st0" d="M533.5,328c0.6,0.9,1.1,1.9,1.1,3.1c0,3-2.5,5.5-5.5,5.5c-1.2,0-2.2-0.4-3.1-1.1c1,1.4,2.6,2.4,4.5,2.4
			c3.1,0,5.5-2.5,5.5-5.5C536,330.6,535,329,533.5,328z"/>
		<path class="st0" d="M440.4,201.9c-1.4,0-2.8-0.6-3.9-1.4c0.2,0.2,0.3,0.6,0.6,0.8c1.3,1.3,3,1.9,4.7,2c3.7,0,6.7-3,6.7-6.7
			c0-2.2-1.2-4-2.8-5.2c0.8,1.1,1.4,2.4,1.4,3.9C447.1,198.9,444.1,201.9,440.4,201.9z"/>
		<path class="st0" d="M499,346.2l-1.3,0l-182.6,0.4l-32.3,0.1l-182.6,0.4l-1.3,0l0.2,1.3c0.1,0.7,0.2,1.4,0.2,2.2
			c0,3.8-1.5,7.3-4.1,10c-2.7,2.7-6.2,4.2-10,4.2c-3.6,0-6.8-1.3-9.3-3.5c2.6,3,6.4,4.9,10.7,4.9c3.8,0,7.3-1.5,10-4.2
			c2.7-2.7,4.1-6.2,4.1-10c0-0.7-0.1-1.5-0.2-2.2l-0.2-1.3l1.3,0l182.6-0.4l32.3-0.1l182.3-0.4c0,0,0-0.1,0-0.1L499,346.2z"/>
		<path class="st0" d="M523.4,340.5c2.1,2.5,3.5,5.6,3.5,9.2c0,3.7-1.4,7.3-4.1,10c-2.7,2.7-6.2,4.1-10,4.1c-3.6,0-6.8-1.3-9.3-3.5
			c2.6,3,6.4,4.9,10.6,4.9c3.8,0,7.3-1.5,10-4.1c2.6-2.7,4.1-6.2,4.1-10C528.3,346.8,526.4,343.1,523.4,340.5z"/>
		<path class="st0" d="M384.3,236.3l-63.3,0.1l-44.4,0.1l-63.3,0.1c-0.4,0-0.8-0.1-1.1-0.2c0.4,1,1.4,1.6,2.5,1.6l63.3-0.1l44.4-0.1
			l63.4-0.1c1.5,0,2.7-1.2,2.7-2.7c0-1.1-0.7-2-1.6-2.5c0.2,0.4,0.3,0.7,0.2,1.1C387,235.1,385.8,236.3,384.3,236.3z"/>
		<path class="st0" d="M129.3,209.6l0.9,1.3c1.8,2.5,1.9,6,0.3,9.7c-1,2.4-2.9,5-5.6,7.4c1.9-2,3.4-4.1,4.2-6
			c1.6-3.7,1.5-7.3-0.3-9.7l-0.7-1c0.1-0.1,0.2-0.3,0.3-0.4L129.3,209.6z"/>
		<path class="st0" d="M111.7,245.3c9.1,0,17.4-4.4,23.6-10.2c-6.2,6.6-15.1,11.6-24.9,11.6c-18.8,0-22.8-11.7-22.8-14.1
			c0-3.5,1.1-6.5,3.2-8.6c0.2-0.2,0.5-0.4,0.8-0.7c-1.7,2-2.6,4.7-2.6,7.8C88.9,233.6,92.9,245.4,111.7,245.3z"/>
		<path class="st0" d="M114.6,216.8c6.1,0,9.4-1.6,11.4-3.3c-1.7,2-5,4.6-12.8,4.6c-9.5,0-13.5-10.3-13.5-15.8
			c0-2.9,1.5-7.3,4.8-10.6c0.2-0.2,0.5-0.4,0.8-0.6c-2.9,3.2-4.2,7.2-4.2,9.9C101.1,206.5,105,216.8,114.6,216.8z"/>
		<path class="st0" d="M250.6,111.7c2.4,3.1,5.3,5.2,7.7,6.3l0,1.9c-2.5-0.6-6.3-3.1-9.1-6.8c-2.5-3.3-5-8.3-3.9-14.9l1.3,1.1
			C246.4,104.6,248.5,108.9,250.6,111.7z"/>
		<path class="st0" d="M245.4,118.2l1.3,1.1c-0.2,5.3,1.9,9.5,4,12.3c2.4,3.1,5.4,5.2,7.7,6.2l0,1.9c-2.5-0.6-6.3-3.1-9.1-6.8
			C246.8,129.8,244.3,124.8,245.4,118.2z"/>
		<path class="st0" d="M251.2,155c-2.5-3.2-5-8.2-3.9-14.6l1.3,1.1c-0.1,5.2,1.9,9.4,4,12.1c2.6,3.4,5.6,5.4,7.9,6.4l0.1,1.9
			C258.2,161.3,254.4,159.1,251.2,155z"/>
		<path class="st0" d="M182.3,217.6c3.7,0,7,0.8,9.8,2.4l1.5,0.8l-1.3,1c0,0-0.1,0.1-0.3,0.2l-1.3-0.7c-2.8-1.6-6.1-2.4-9.8-2.3
			c-6.6,0-12.9,2.6-15.6,4.5l0.2-0.3C167,221.3,174.4,217.6,182.3,217.6z"/>
		<path class="st0" d="M197.5,238.3c2,0,3.9-0.9,5.5-2.3c-0.3,0.3-0.5,0.7-0.8,1c-1.7,1.7-3.9,2.7-6.1,2.7c-5.2,0-9.3-3.7-9.4-8.5
			c0-4.5,3.7-7.6,4.1-8c-1.2,1.4-2.7,3.7-2.7,6.6C188.1,234.6,192.2,238.3,197.5,238.3z"/>
		<path class="st0" d="M165.7,244.1c0.8,0,1.1-0.1,1.1-0.1l0.9-0.4c0.9-0.3,2.1-0.8,3.1-1.5c-1.3,1.7-3.2,2.4-4.5,2.9l-0.9,0.3
			c0,0-0.3,0.1-1.1,0.1c-2.6,0-12.7-1.7-13.7-10.4c-0.8-7.1,2-13.8,7.1-18.8c-4.3,4.9-6.5,11-5.8,17.5
			C153,242.3,163.1,244.1,165.7,244.1z"/>
		<path class="st0" d="M73.9,262.4l0,2.7c0,4.5,6.4,9,12.8,9c2.8,0,5.1-0.9,7-2.5c-2.1,2.5-4.9,3.9-8.4,3.9c-6.3,0-12.7-4.5-12.7-9
			l0-2.7l-0.6,0.6c0,0,0-0.1,0.1-0.1L73.9,262.4z"/>
		<path class="st0" d="M85.7,308l0.2,1.3l-1.6,0c-0.5-4.3,0.2-7.8,2.4-10.2c0.3-0.3,0.7-0.6,1.1-0.9C85.9,300.6,85.2,303.9,85.7,308
			z"/>
		<path class="st0" d="M56.1,256.1c-5.4,5.6-10.6,14.4-10.5,28.2c0,17.3,16.9,36.6,39.4,36.6l0,0c3.5,0,11.2-1.3,16.4-6
			c-0.2,0.2-0.3,0.5-0.6,0.7c-5.2,5.3-13.6,6.6-17.2,6.7l0,0C61,322.2,44.2,303,44.1,285.7C44.1,270.7,50.2,261.5,56.1,256.1z"/>
		<path class="st0" d="M204.8,179.7c-0.3,0.7-0.6,1.3-0.9,2c-17.7-19.2-8.7-37.5-5.3-43c0.1,0.1,0.3,0.3,0.4,0.4
			C195.3,145.9,189.3,162.4,204.8,179.7z"/>
		<path class="st0" d="M177.3,191.4c4.8,6,11.9,9.5,21.1,10.6c0,0.5,0.1,1,0,1.6c-9.9-0.9-17.5-4.6-22.5-10.8
			c-6.3-7.8-7-18-6.5-23.1c0.3,0,0.8,0.1,1.3,0.2C170.5,175.2,171.6,184.3,177.3,191.4z"/>
		<path class="st0" d="M218.2,170.8c2.2-0.3,7.7-1.5,12.3-5.5c-4.8,5.1-11.2,6.5-13.7,6.9c-0.7-3.9-1.3-11.9,3.2-18.5
			c0.9-1.4,2.1-2.6,3.4-3.7c-0.7,0.7-1.4,1.5-2,2.3C216.9,159,217.5,166.9,218.2,170.8z"/>
		<path class="st0" d="M71.3,236.6c1.1,1.1,2.6,1.8,4.2,1.8c1.3,0,2.4-0.5,3.4-1.2c-1.1,1.5-2.8,2.6-4.8,2.6c-1.6,0-3.1-0.6-4.2-1.7
			c-1.1-1.1-1.7-2.6-1.8-4.2c0-1.6,0.6-3.1,1.7-4.2c0.2-0.2,0.6-0.4,0.8-0.6c-0.7,1-1.2,2.2-1.2,3.4C69.6,234,70.2,235.5,71.3,236.6
			z"/>
		<path class="st0" d="M67.2,329c-0.6,0.9-1.1,1.9-1.1,3.1c0,3,2.5,5.5,5.6,5.5c1.2,0,2.2-0.4,3.1-1.1c-1,1.5-2.6,2.5-4.4,2.5
			c-3.1,0-5.5-2.5-5.6-5.5C64.7,331.6,65.8,330,67.2,329z"/>
		<path class="st0" d="M159.8,202.4c1.4,0,2.8-0.6,3.9-1.4c-0.2,0.3-0.3,0.6-0.6,0.8c-1.3,1.3-3,2-4.7,2c-3.7,0-6.7-3-6.7-6.7
			c0-2.2,1.1-4.1,2.8-5.3c-0.8,1.1-1.4,2.4-1.4,3.9C153,199.4,156.1,202.4,159.8,202.4z"/>
	</g>
	<path class="st4" d="M298.8,120.7l0.7,26.1c0,0,11-4.7,11.2-8.5c0.2-3.8,0-17.4,0-17.4L298.8,120.7z"/>
	<path class="st4" d="M208.2,203.4c2.4,11.2,12.4,19.7,24.4,19.6l45.4,0l43.9,0l45.4,0c11.9,0,21.9-8.4,24.4-19.6H208.2z"/>
	<g class="st5">
		<path class="st0" d="M226.8,195.6c0-3.1-1.3-5.6-3.9-5.6c-3.1,0-3.9,6.6-3.9,10.7c0,4.1,0.8,10.7,3.9,10.7c2.7,0,4-2.5,3.9-5.6
			l4.7,0c-0.2,7.4-3.9,10.2-8.6,10.1c-5.9,0-8.6-6.7-8.6-15.2c0-8.6,2.7-15.3,8.6-15.3c4.7,0,8.4,2.8,8.6,10.1L226.8,195.6z"/>
		<polygon class="st0" points="234.2,215.3 234.2,186 238.6,186.1 238.6,197.6 246.4,197.6 246.4,186 250.8,186 250.8,215.4 
			246.5,215.3 246.5,202.5 238.6,202.5 238.6,215.3 		"/>
		<path class="st0" d="M254,200.7c0-8.7,3-15.3,9.8-15.3c6.8,0,9.9,6.7,9.9,15.3c0,8.6-3.1,15.3-9.9,15.2
			C257,215.9,253.9,209.3,254,200.7 M258.6,200.6c0,5.1,0.8,10.8,5.2,10.7c4.3,0,5.2-5.7,5.2-10.7c0-5-0.8-10.7-5.2-10.7
			C259.5,189.9,258.6,195.7,258.6,200.6z"/>
		<path class="st0" d="M288.3,195.5c0-3.1-1.3-5.5-3.9-5.6c-3.1,0-3.9,6.6-3.9,10.7c0,4.1,0.8,10.7,4,10.7c2.6,0,3.9-2.5,3.9-5.6
			l4.7,0c-0.2,7.3-3.9,10.1-8.6,10.1c-6,0-8.6-6.7-8.6-15.2c0-8.6,2.7-15.3,8.6-15.3c4.7,0,8.4,2.7,8.6,10.1L288.3,195.5z"/>
		<path class="st0" d="M295,200.6c0-8.6,3-15.2,9.8-15.2c6.7,0,9.8,6.6,9.8,15.2c0,8.7-3.1,15.3-9.8,15.3
			C298,215.9,295,209.3,295,200.6 M299.6,200.6c0,5.1,0.8,10.8,5.2,10.8c4.4,0,5.2-5.7,5.2-10.7c0-5-0.8-10.7-5.1-10.7
			C300.5,189.9,299.6,195.6,299.6,200.6z"/>
		<polygon class="st0" points="317.8,215.3 317.8,186 322.2,185.9 322.2,210.4 331.1,210.4 331.1,215.3 		"/>
		<path class="st0" d="M333.8,215.3l7.4-29.3l5.2,0l7.2,29.3l-4.4,0l-1.5-6.2l-8.1,0l-1.5,6.3L333.8,215.3 M346.5,204.2l-2.8-12.5
			l-0.1,0l-3,12.5L346.5,204.2z"/>
		<polygon class="st0" points="351,186 367.6,186 367.6,190.8 361.5,190.8 361.5,215.3 357.1,215.3 357.1,190.8 351,190.9 		"/>
		<polygon class="st0" points="370.2,185.9 384,185.9 384,190.8 374.7,190.8 374.7,197.7 383.4,197.6 383.4,202.6 374.7,202.6 
			374.7,210.4 384.3,210.4 384.3,215.3 370.2,215.3 		"/>
	</g>
	<g>
		<path class="st1" d="M226,194.3c0-3.1-1.3-5.6-3.9-5.6c-3.1,0-3.9,6.6-3.9,10.7c0,4.1,0.8,10.7,3.9,10.7c2.7,0,4-2.5,3.9-5.6
			l4.7,0c-0.2,7.4-3.9,10.2-8.6,10.1c-5.9,0-8.6-6.7-8.6-15.2c0-8.6,2.7-15.3,8.6-15.3c4.7,0,8.4,2.8,8.6,10.1L226,194.3z"/>
		<polygon class="st1" points="233.4,214 233.5,184.7 237.9,184.7 237.8,196.3 245.6,196.3 245.6,184.7 250,184.7 250.1,214 
			245.7,214 245.7,201.1 237.9,201.1 237.9,214 		"/>
		<path class="st1" d="M253.2,199.3c0-8.7,3-15.3,9.8-15.3c6.8,0,9.9,6.7,9.9,15.3c0,8.6-3.1,15.3-9.9,15.2
			C256.3,214.6,253.1,208,253.2,199.3 M257.9,199.3c0,5.1,0.8,10.8,5.2,10.7c4.3,0,5.2-5.7,5.2-10.7c0-5-0.8-10.7-5.2-10.7
			C258.7,188.6,257.8,194.3,257.9,199.3z"/>
		<path class="st1" d="M287.5,194.2c0-3.1-1.3-5.5-3.9-5.6c-3.1,0-3.9,6.6-3.9,10.7c0,4.1,0.8,10.7,4,10.7c2.6,0,3.9-2.5,3.9-5.6
			l4.7,0c-0.2,7.3-3.9,10.1-8.6,10.1c-6,0-8.6-6.7-8.6-15.2c0-8.6,2.7-15.3,8.6-15.3c4.7,0,8.4,2.7,8.6,10.1L287.5,194.2z"/>
		<path class="st1" d="M294.2,199.3c0-8.6,3-15.2,9.8-15.2c6.7,0,9.8,6.6,9.8,15.2c0,8.7-3.1,15.3-9.8,15.3
			C297.3,214.6,294.2,208,294.2,199.3 M298.8,199.3c0,5.1,0.8,10.8,5.2,10.8c4.4,0,5.2-5.7,5.2-10.7c0-5-0.8-10.7-5.1-10.7
			C299.7,188.6,298.9,194.3,298.8,199.3z"/>
		<polygon class="st1" points="317,214 317,184.6 321.4,184.6 321.4,209.1 330.3,209.1 330.3,213.9 		"/>
		<path class="st1" d="M333,214l7.4-29.3l5.2,0l7.2,29.3l-4.4,0l-1.5-6.2l-8.1,0l-1.5,6.3L333,214 M345.7,202.9l-2.8-12.5l-0.1,0
			l-3,12.5L345.7,202.9z"/>
		<polygon class="st1" points="350.2,184.6 366.8,184.6 366.8,189.5 360.7,189.5 360.7,214 356.3,214 356.3,189.5 350.2,189.5 		"/>
		<polygon class="st1" points="369.5,184.6 383.2,184.6 383.2,189.4 373.9,189.5 373.9,196.3 382.6,196.3 382.6,201.3 373.9,201.3 
			373.9,209.1 383.5,209 383.5,214 369.5,213.9 		"/>
	</g>
	<g class="st6">
		<path class="st0" d="M76.7,300.4c0.4,0.3,0.7,0.7,1.1,1c0.1-0.3,0.2-0.7,0.3-1H76.7z"/>
		<path class="st0" d="M494.9,319.6c-3.9-3.9-6.1-9-6.1-14.6c0-1.6,0.2-3.1,0.6-4.6H110.6c0.4,1.5,0.7,3.1,0.7,4.7
			c0,5.7-2.1,10.7-6.1,14.7c-6.7,6.8-17,8.6-21.9,8.6c-0.7,0-1.3,0-1.9-0.1c0.3,0.8,0.6,1.6,0.6,2.4l3.8,0l198.2-0.2l32.3,0
			l198.1-0.1l3.8,0c0.2-0.8,0.4-1.6,0.7-2.4c-0.7,0-1.3,0-2,0C511.9,328.1,501.7,326.4,494.9,319.6z"/>
		<path class="st0" d="M522.1,300.4c0.1,0.2,0.1,0.5,0.2,0.7c0.3-0.2,0.6-0.5,0.8-0.7H522.1z"/>
	</g>
	<g class="st5">
		<path class="st0" d="M140.1,308.3c0,5-0.6,10.3,3.8,13.2l0,0.3l-24.5,0l0-0.3c4.5-3,3.8-8.3,3.8-13.2l0-35.4
			c0-4.9,0.6-10.3-3.8-13.2l0-0.3l24.6,0l0,0.3c-4.5,3-3.8,8.4-3.8,13.3L140.1,308.3z"/>
		<path class="st0" d="M184.9,259.4c6.2,0,11.3,0,16.2,3.1c4.8,3.1,7.8,6.8,7.8,11.8c0,6.3-5.3,10.1-12.3,12
			c10,1.1,16.8,8,16.8,16.2c0,5.9-2.8,10.8-8.2,14.7c-6.3,4.5-12.5,4.6-20.7,4.6l-34.1,0l0-0.3c5.7-3,4.9-8.3,4.9-13.2l-0.1-35.4
			c0.1-5,0.8-10.4-4.9-13.2l0-0.2L184.9,259.4 M171.4,283.3c0.8,0.2,12.8,0.4,13.7,0.4c5.5,0,8.5-4.1,8.5-8.2c0-3.7-2.3-8-7.3-7.9
			c-1.2,0-13.7-0.4-14.9,0L171.4,283.3 M171.5,311.8c1.7,1,12.7,1.1,14.7,1.1c7.6,0,10.6-5.1,10.6-10.6c0-7.2-4.1-10.4-13-10.4
			l-12.4,0L171.5,311.8z"/>
		<path class="st0" d="M231.1,302.9l-2.3,6.5c-0.6,1.9-1.8,4.8-1.8,6.8c0,2.7,1.8,3.9,3.5,5.4l0,0.2l-18.5,0l0.1-0.3
			c3.7-3.3,5-6.1,6.8-10.9l13.6-37.9c0.6-1.9,2.2-5.6,2.2-7.6c0-2.6-1.8-4.3-3.7-5.5l0-0.3l32.5,0c0,0-4.8,6-3.5,8.9
			c1.3,3,19.5,49.3,21.4,53.2l0,0.2l0,0.1l-26,0l0-0.3c2.3-1.4,4-2.8,4-5.8c0-1.6-0.2-2.1-0.8-3.6l-3.3-9.2L231.1,302.9 M243.3,270
			l-1.8,0l-7.5,24.2l17.2,0L243.3,270z"/>
		<path class="st0" d="M303.5,308.2c0,4.9-0.8,10.3,4.7,13.3l0,0.3l-24.9,0l0-0.2c5.5-3,4.7-8.4,4.7-13.3l0-35.3
			c0-4.9,0.8-10.3-4.7-13.3l0-0.2l33,0c5.5,0,10-0.1,14.9,2.2c6.6,3,10.4,7.6,10.4,14c0,7.1-4.2,12.8-11.5,15.4l11,18.9
			c3.1,4.3,4.2,9,8.7,12.1l-9.1,0.1c-7.5,0.4-11-0.5-14.9-6.3l-10.2-18.3l-12.2,0.2L303.5,308.2 M303.5,267.6l0,22.4
			c18.7,0,20.6-6.1,20.6-12.1c0-3-1.5-7.2-4.5-9c-1.8-1.1-4.2-1.3-6.4-1.3L303.5,267.6z"/>
		<path class="st0" d="M480.6,321.3c-1.9-3.9-20.1-50.1-21.5-53.1c-1.3-2.9,3.5-9,3.5-9l-32.5,0.1l0,0.3c2,1.2,3.7,2.9,3.7,5.5
			c0,2-1.6,5.7-2.1,7.6l-13.6,37.8c-1.1,3-2.1,5.1-3.5,7.2c-1.6-2.5-2.9-5.3-4.8-8l-11.1-18.9c7.4-2.7,11.5-8.4,11.5-15.4
			c0-6.4-3.8-10.9-10.4-14c-5-2.2-9.5-2.1-15-2.1l-33,0l0,0.3c5.5,2.9,4.7,8.3,4.7,13.3l0,35.2c0,5,0.8,10.4-4.7,13.3l0,0.3l24.8,0
			l0-0.3c-5.5-2.9-4.7-8.4-4.7-13.3l0-10.6l12.2-0.2l10.2,18.3c3.9,5.9,7.4,6.7,14.9,6.4l9.1-0.1c-0.1,0-0.1-0.1-0.2-0.2l11.5,0
			l0-0.3c-1.8-1.4-3.5-2.7-3.6-5.3c0-2,1.1-5,1.8-6.8l2.4-6.4l23.9,0l3.3,9.2c0.6,1.6,0.7,2,0.7,3.6c0,3.1-1.8,4.4-4,5.8l0,0.3l26,0
			l0-0.1L480.6,321.3z M372.3,289.9l0-22.3l9.6,0c2.3,0,4.6,0.2,6.5,1.3c3,1.8,4.5,5.9,4.5,9C392.8,283.8,391,289.9,372.3,289.9z
			 M433.4,294.1l7.5-24.2l1.8,0l7.9,24.2L433.4,294.1z"/>
	</g>
	<g>
		<path class="st1" d="M138.3,305.5c0,5-0.6,10.3,3.8,13.2l0,0.3l-24.5,0l0-0.3c4.5-3,3.8-8.3,3.8-13.2l0-35.4
			c0-4.9,0.6-10.3-3.8-13.2l0-0.3l24.6,0l0,0.3c-4.5,3-3.8,8.4-3.8,13.3L138.3,305.5z"/>
		<path class="st1" d="M183.2,256.5c6.2,0,11.3,0,16.2,3.1c4.8,3.1,7.8,6.8,7.8,11.8c0,6.3-5.3,10.1-12.3,12
			c10,1.1,16.8,8,16.8,16.2c0,5.9-2.8,10.8-8.2,14.7c-6.3,4.5-12.5,4.6-20.7,4.6l-34.1,0l0-0.3c5.7-3,4.9-8.3,4.9-13.2l-0.1-35.4
			c0.1-5,0.8-10.4-4.9-13.2l0-0.2L183.2,256.5 M169.7,280.5c0.8,0.2,12.8,0.4,13.7,0.4c5.5,0,8.5-4.1,8.5-8.2c0-3.7-2.3-8-7.3-7.9
			c-1.2,0-13.7-0.4-14.9,0L169.7,280.5 M169.7,308.9c1.7,1,12.7,1.1,14.7,1.1c7.6,0,10.6-5.1,10.6-10.6c0-7.2-4.1-10.4-13-10.4
			l-12.4,0L169.7,308.9z"/>
		<path class="st1" d="M229.4,300l-2.3,6.5c-0.6,1.9-1.8,4.8-1.8,6.8c0,2.7,1.8,3.9,3.5,5.4l0,0.2l-18.5,0l0.1-0.3
			c3.7-3.3,5-6.1,6.8-10.9l13.6-37.9c0.6-1.9,2.2-5.6,2.2-7.6c0-2.6-1.8-4.3-3.7-5.5l0-0.3l32.5,0c0,0-4.8,6-3.5,8.9
			c1.3,3,19.5,49.3,21.4,53.2l0,0.2l0,0.1l-26,0l0-0.3c2.3-1.4,4-2.8,4-5.8c0-1.6-0.2-2.1-0.8-3.6l-3.3-9.2L229.4,300 M241.6,267.1
			l-1.8,0l-7.5,24.2l17.2,0L241.6,267.1z"/>
		<path class="st1" d="M301.8,305.3c0,4.9-0.8,10.3,4.7,13.3l0,0.3l-24.9,0l0-0.2c5.5-3,4.7-8.4,4.7-13.3l0-35.3
			c0-4.9,0.8-10.3-4.7-13.3l0-0.2l33,0c5.5,0,10-0.1,14.9,2.2c6.6,3,10.4,7.6,10.4,14c0,7.1-4.2,12.8-11.5,15.4l11,18.9
			c3.1,4.3,4.2,9,8.7,12.1l-9.1,0.1c-7.5,0.4-11-0.5-14.9-6.3L314,294.5l-12.2,0.2L301.8,305.3 M301.8,264.7l0,22.4
			c18.7,0,20.6-6.1,20.6-12.1c0-3-1.5-7.2-4.5-9c-1.8-1.1-4.2-1.3-6.4-1.3L301.8,264.7z"/>
		<path class="st1" d="M478.8,318.5c-1.9-3.9-20.1-50.1-21.5-53.1c-1.3-2.9,3.5-9,3.5-9l-32.5,0.1l0,0.3c2,1.2,3.7,2.9,3.7,5.5
			c0,2-1.6,5.7-2.1,7.6l-13.6,37.8c-1.1,3-2.1,5.1-3.5,7.2c-1.6-2.5-2.9-5.3-4.8-8L397.2,288c7.4-2.7,11.5-8.4,11.5-15.4
			c0-6.4-3.8-10.9-10.4-14c-5-2.2-9.5-2.1-15-2.1l-33,0l0,0.3c5.5,2.9,4.7,8.3,4.7,13.3l0,35.2c0,5,0.8,10.4-4.7,13.3l0,0.3l24.8,0
			l0-0.3c-5.5-2.9-4.7-8.4-4.7-13.3l0-10.6l12.2-0.2l10.2,18.3c3.9,5.9,7.4,6.7,14.9,6.4l9.1-0.1c-0.1,0-0.1-0.1-0.2-0.2l11.5,0
			l0-0.3c-1.8-1.4-3.5-2.7-3.6-5.3c0-2,1.1-5,1.8-6.8l2.4-6.4l23.9,0l3.3,9.2c0.6,1.6,0.7,2,0.7,3.6c0,3.1-1.8,4.4-4,5.8l0,0.3l26,0
			l0-0.1L478.8,318.5z M370.5,287.1l0-22.3l9.6,0c2.3,0,4.6,0.2,6.5,1.3c3,1.8,4.5,5.9,4.5,9C391,281,389.2,287.1,370.5,287.1z
			 M431.7,291.2l7.5-24.2l1.8,0l7.9,24.2L431.7,291.2z"/>
	</g>
	<path class="st4" d="M332,51.6c-6.7,2.2-15.3,1.6-27.8-0.1c-11.3-1.5-16,4.1-17.9,8.3c0.6,1.5,1.2,3,1.8,4c1.8,3,4.2,1.7,2.9-0.4
		c-1.2-1.9,1.7-4.9,5.7-6.1c1.3-0.3,4.1-0.3,6.6-0.1c8.6,1.3,27.1,4.8,33.9-5.5C335.1,52,333.4,51.9,332,51.6z"/>
	<polygon class="st1" points="327.4,79.9 351.6,88.9 349.3,89.3 326.4,80.6 	"/>
	<polygon class="st1" points="272.6,79.9 248.4,88.9 250.7,89.3 273.6,80.6 	"/>
	<path class="st1" d="M488.5,188.6c0,0-20-9-32.3,20C456.2,208.6,464,187.6,488.5,188.6z"/>
	<path class="st1" d="M110.3,188.6c0,0,20-9,32.3,20C142.7,208.6,134.9,187.6,110.3,188.6z"/>
	<path class="st1" d="M507.5,254.7c0,0,10-13,30.4-3.3C537.9,251.3,517.8,245.6,507.5,254.7z"/>
	<path class="st1" d="M95.1,254.7c0,0-10-13-30.4-3.3C64.7,251.3,84.8,245.6,95.1,254.7z"/>
	<rect x="84.8" y="338" class="st1" width="431.1" height="1.6"/>
	<path class="st1" d="M303.3,72.5c0,0,7.2,1.3,1,17C303.3,73,303.3,72.5,303.3,72.5z"/>
	<path class="st1" d="M405.5,211.5c0,0,13.9-10.1,33.9,1.8c0.2,0.1,0.4,0.3,0.6,0.4C440,213.7,423.6,204.2,405.5,211.5z"/>
	<path class="st1" d="M194.7,211.5c0,0-13.9-10.1-33.9,1.8c-0.2,0.1-0.4,0.3-0.6,0.4C160.1,213.7,176.5,204.2,194.7,211.5z"/>
	<path class="st1" d="M425.1,169.8c0,0-21.3,3.8-23.6,29.1C401.6,198.9,402.6,180.3,425.1,169.8z"/>
	<path class="st1" d="M174.5,169.8c0,0,21.3,3.8,23.6,29.1C198.1,198.9,197.1,180.3,174.5,169.8z"/>
	<g>
		<g>
			<path class="st0" d="M195.2,375.9c0.9-4.7,1.1-6.3,1.1-6.8c0-0.6-0.2-0.6-2.8-1c-0.7-0.1-0.9-0.2-0.9-0.4c0-0.5,0.1-1.9,0.5-1.9
				c0.4,0,1.3,0.2,2.3,0.3c1.1,0.2,2.2,0.4,3.1,0.4c1.8,0,3.4-0.2,4.9-0.2c1.5-0.1,2.9-0.2,4.3-0.2c9-0.1,14.9,5.5,15.1,16.4
				c0.1,9.3-5.3,24.4-20.8,24.6c-3.7,0.1-6.5-0.7-9.5-0.6c-2.6,0-5.2,0.8-5.9,0.8c-0.2,0-0.4-0.2-0.4-0.5c0-0.2,0.1-1.9,0.6-1.9
				c2.6-0.3,2.8-0.5,3-0.7c0.3-0.4,1.3-5.4,1.7-7.9L195.2,375.9z M195.6,398.3c-0.4,2-0.8,4.1-0.8,5.1c0,1.4,2.2,1.3,6.1,1.3
				c10.6-0.1,17.2-11.2,17.1-21.6c-0.1-9.7-3.8-14.7-12.9-14.6c-3.6,0-3.9,0.1-4.1,1.3L195.6,398.3z"/>
			<path class="st0" d="M241.9,398.7c-2.7,3.6-7,7.9-11.3,7.9c-3.7,0-6.1-3.3-6.2-7.2c-0.1-9.1,6.2-19.4,13.3-19.5
				c1.8,0,3.5,0.9,3.6,3.1c0.1,6.3-8.2,11.1-12.7,12.4c-0.1,0.7-0.2,1.4-0.2,2.2c0,3,1.6,5.4,4.3,5.3c3.3,0,6.1-2.4,8.4-5
				L241.9,398.7z M235.7,382.3c-3.6,0-6.3,8.3-6.9,11.7c3.2-0.7,8.8-5.6,8.7-9.7C237.5,383.2,236.7,382.3,235.7,382.3z"/>
			<path class="st0" d="M248.1,406.4c-2.5,0-5.2-0.7-5.2-1.4c0-0.5,0-1.6,0.2-4.4c0-0.7,0.2-1.1,0.5-1.1c1.1,0,1.2,4.5,5.8,4.5
				c2.1,0,4.6-1.9,4.6-4.8c-0.1-4.9-9-3.6-9.1-10c-0.1-4.4,3.1-9.5,11.3-9.6c1.2,0,3.3,0.5,3.3,1c0,0.3-0.7,3.4-0.8,3.7
				c-0.1,0.3-0.1,0.5-0.4,0.5c-0.7,0-1.4-2.8-4.9-2.7c-3,0-4.8,2.7-4.8,4.8c0.1,4.3,9.3,4,9.4,9.8
				C258,399.7,254.6,406.3,248.1,406.4z"/>
			<path class="st0" d="M282.7,400.7c-1.6,1.5-5.8,5.3-7.7,5.3c-0.6,0-1.3-0.5-1.3-1.6c0-1.5,1.4-8.5,2.3-11.5l-0.1,0
				c-2.5,4.4-8.6,13.2-13.5,13.2c-1.9,0-2.7-1.4-2.7-3.5c-0.1-6.5,7.8-23.3,15.7-23.4c1.2,0,1.9,0.4,2.7,1.3l2.2-11
				c0.1-0.7,0.2-1.3,0.2-1.6c0-0.3-0.1-0.4-0.2-0.4c-0.2,0-0.4,0.2-2.8,2.3l-0.6-1.1c7.1-6.3,7.4-6.6,8.1-6.6c0.4,0,0.7,0.4,0.7,1.1
				c0,1.1-2,9.6-3.1,14.7l-4,18.7c-0.4,1.9-0.5,3.4-0.5,4.3c0,0.6,0.3,1,0.9,1c0.4,0,2.4-1.8,3-2.3L282.7,400.7z M265.8,402.1
				c2.8,0,11.4-10.6,11.4-16.8c0-2.1-0.6-3.6-2.4-3.5c-5.5,0.1-10.5,13.3-10.4,18C264.4,401.3,264.9,402.1,265.8,402.1z"/>
			<path class="st0" d="M301.9,397.9c-2.7,3.6-7,7.9-11.3,7.9c-3.7,0-6.1-3.3-6.2-7.3c-0.1-9.1,6.2-19.4,13.3-19.5
				c1.8,0,3.5,0.9,3.6,3.1c0.1,6.3-8.2,11.1-12.7,12.4c-0.1,0.7-0.2,1.4-0.2,2.2c0,3,1.6,5.4,4.3,5.3c3.3,0,6.1-2.4,8.4-5
				L301.9,397.9z M295.8,381.5c-3.6,0-6.3,8.3-6.9,11.7c3.2-0.7,8.8-5.6,8.7-9.7C297.6,382.4,296.7,381.5,295.8,381.5z"/>
			<g>
				<path class="st0" d="M320.3,374.3l-0.1,0l-10.4,14.3c-0.2,0.3-0.4,0.3-0.5,0.3c-0.1,0-0.2-0.1-0.3-0.2l-1.2-1.3
					c-0.1-0.1-0.2-0.3-0.2-0.5c0-0.2,0.1-0.4,0.7-1.1l17.7-23c0.5-0.7,0.9-1.1,1.7-1.1c1.9,0,2.6,0.2,2.6,0.7c0,0.7-0.2,1.6-0.5,3
					l-8,40.6l-8,0L320.3,374.3z"/>
				<path class="st0" d="M336.5,405.8c5.1-5.6,9.7-14.8,11.6-19.8l2.1-5.7l-0.1,0c-3,4.6-7.8,10-13.2,10c-3.6,0-5.8-2.7-5.9-7.1
					c0-8.6,9.8-21.6,19.8-21.6c5.7,0,8.6,3.7,8.7,10.3c0,9.2-7.1,22.5-16.7,32.5l-7.4,7.7c-0.5,0.5-0.8,0.7-1,0.7
					c-0.1,0-0.3-0.2-0.6-0.5l-0.9-1.1c-0.2-0.2-0.3-0.4-0.3-0.7c0-0.5,0.3-0.9,1.1-1.8L336.5,405.8z M341.5,385.2
					c3.5,0,10.7-8.7,10.7-15c0-2.8-0.8-4.8-3.2-4.8c-5,0-10.5,12.4-10.5,16.7C338.5,383.7,339.6,385.2,341.5,385.2z"/>
				<path class="st0" d="M371.8,383.8c2.2-2.6,4.5-6.3,4.5-9.5c0-4.6-3.1-6.2-6.1-6.2c-2.4,0-3.6,0.9-4.8,2.5l-1.7,2.4
					c-0.1,0.1-0.2,0.1-0.3,0.1c-0.2,0-0.3-0.1-0.5-0.2l-1.5-0.9c-0.3-0.1-0.4-0.3-0.4-0.5c0-0.3,0.2-0.6,0.5-1.1l4.6-6.4
					c1.9-2.5,3.1-3,7-3.1c5.4,0,10.9,2.6,11,10.3c0,5.3-3.2,10-9.4,15.9l-12.1,11.2l0,0.1c3.3-1.3,8.1-2.2,10.7-2.2
					c2.9,0,5.7,0.7,8.4,2.2l1.6-4c0.1-0.4,0.3-0.6,0.4-0.6c0.1,0,0.4,0,0.7,0.2l1.4,0.7c0.4,0.1,0.6,0.3,0.6,0.5
					c0,0.3-0.2,0.6-0.6,1.3l-4.5,9.2c-0.3,0.6-0.5,0.9-0.9,0.9c-1.7,0-6.3-5-15.6-5c-3.4,0-5.3,0.5-6.7,2.3l-2.2,2.8l-1.6-1.2
					c-0.2-0.1-0.3-0.4-0.3-0.6c0-0.2,0.1-0.3,0.3-0.5L371.8,383.8z"/>
				<path class="st0" d="M390.5,378.3c10.7,1.3,16.6,3.3,16.6,10.7c0,15-25.1,24.5-26.4,24.5c-0.6,0-1.5-2.3-1.5-2.8
					c0-0.3,0-0.4,0.3-0.5c11.3-3.3,19.2-10.3,19.2-17.3c0-8-14.7-6.8-14.7-8c0-0.5,0.2-0.9,0.9-2.2l10.9-20.6
					c2.4,0.1,4.9,0.2,7.3,0.2c4.4,0,6.5-0.2,7.5-0.2c0.8,0,1.1,0.2,1.1,0.6c0,0.2-0.1,0.5-0.2,0.8l-3,5.8c-0.2,0.4-0.5,0.7-1,0.7
					l-12.5,0L390.5,378.3z"/>
			</g>
		</g>
	</g>
</g>
</svg>
